if (_typeface_js && _typeface_js.loadFace) _typeface_js.loadFace({"glyphs":{"0":{"ha":639,"x_min":0,"x_max":667,"o":"m 0 732 l 0 775 l 667 775 l 667 732 l 474 732 l 544 690 l 565 582 q 572 479 572 546 q 496 243 572 336 q 307 144 417 144 q 136 236 206 144 q 81 340 99 285 q 63 465 63 396 q 168 731 63 588 l 0 732 m 419 274 q 443 316 419 274 q 468 479 468 358 q 432 731 468 675 l 193 732 l 258 704 q 174 561 201 631 q 146 410 146 492 q 157 322 146 363 q 207 228 174 265 q 300 186 247 183 q 419 274 369 189 z "},"1":{"ha":861,"x_min":1,"x_max":882,"o":"m 219 367 l 236 344 l 254 318 l 271 288 l 288 256 q 361 288 331 271 q 454 367 424 321 q 468 410 468 389 q 397 510 468 463 q 317 550 363 532 q 217 578 278 565 l 194 621 l 188 649 l 189 657 l 192 664 l 196 668 l 203 668 q 426 640 286 640 l 465 640 q 656 668 597 640 l 664 704 l 735 732 l 1 732 l 1 775 l 882 775 l 882 732 l 749 732 l 744 501 q 742 474 742 483 l 740 425 l 742 135 q 749 74 742 99 q 650 144 675 97 l 650 599 q 364 564 592 564 q 525 429 481 529 q 538 374 538 401 q 483 271 538 319 q 335 186 419 215 q 383 135 353 154 q 446 115 414 115 q 514 136 485 115 q 538 163 529 147 q 544 193 542 172 l 542 204 l 542 214 l 539 221 l 538 226 q 564 167 558 213 q 565 131 565 156 q 533 64 565 90 q 460 38 500 38 q 379 74 415 38 q 338 117 350 96 l 301 172 q 160 144 236 144 q 114 155 132 144 q 71 193 96 165 q 45 244 56 214 q 35 311 35 275 q 76 385 35 357 q 160 410 113 410 q 219 367 185 413 m 204 232 q 258 249 229 235 l 233 283 l 211 310 l 188 326 l 168 332 q 136 326 151 332 l 111 314 q 94 294 100 304 l 89 269 l 93 253 l 106 239 l 121 229 l 140 226 l 204 232 z "},"2":{"ha":736,"x_min":0,"x_max":742,"o":"m 117 457 q 57 508 68 479 q 49 549 51 522 q 136 647 49 607 q 292 686 201 676 q 354 689 318 689 q 467 619 421 689 l 467 704 l 550 732 l 0 732 l 0 775 l 742 775 l 742 732 l 564 732 l 564 607 l 507 567 l 496 564 q 479 567 485 564 l 467 578 q 451 594 463 589 q 426 608 446 601 l 393 617 l 354 619 q 260 611 317 622 q 197 590 239 607 q 146 558 161 575 q 131 521 131 542 q 136 506 131 513 l 157 492 l 186 482 l 221 479 l 288 500 l 326 507 q 397 436 354 507 q 300 425 347 436 q 208 390 246 413 l 168 367 l 140 344 q 122 319 129 333 l 117 297 q 126 264 117 279 q 182 226 151 236 l 204 218 l 258 213 l 326 213 q 344 215 339 215 q 397 226 381 219 q 385 257 389 239 l 382 297 q 432 387 378 349 q 564 425 486 425 q 656 356 631 425 q 663 311 663 333 q 633 246 663 276 q 546 186 600 208 q 467 158 531 176 q 549 71 511 85 q 578 65 560 65 q 638 86 611 65 l 660 111 q 676 144 671 126 q 647 43 676 81 q 615 11 635 24 q 578 1 600 4 q 453 89 507 1 q 425 150 440 110 l 385 146 l 313 144 q 144 196 210 143 q 90 256 113 221 q 74 325 74 288 q 158 450 74 407 q 117 457 144 451 m 632 364 l 626 374 l 617 379 l 606 382 q 488 333 547 382 q 425 235 425 281 l 511 261 q 535 269 519 264 l 542 272 q 619 322 594 293 q 635 354 632 338 q 632 364 633 363 z "},"3":{"ha":772,"x_min":6,"x_max":783,"o":"m 69 535 q 56 578 56 557 q 89 663 56 621 l 128 699 l 181 731 l 6 732 l 6 775 l 532 775 l 532 732 l 342 732 l 364 704 q 158 599 213 678 q 140 549 140 574 q 172 506 140 526 l 208 492 l 251 488 q 350 521 286 488 l 404 451 l 349 425 q 247 358 300 400 q 221 333 238 350 q 154 221 154 272 q 178 176 154 193 l 204 163 l 238 158 q 311 174 276 158 q 464 294 394 211 q 532 396 497 336 l 532 257 q 424 143 490 185 q 353 111 393 124 q 279 101 307 101 q 106 214 153 101 q 90 283 90 247 q 133 363 90 317 q 185 407 160 392 l 251 450 q 151 474 204 451 q 69 535 92 499 m 783 744 l 643 738 l 632 583 l 629 431 q 632 243 629 433 q 643 79 633 174 q 546 150 588 101 l 540 278 l 542 667 l 546 708 l 629 738 l 433 738 l 433 781 l 775 781 l 783 744 z "},"4":{"ha":903,"x_min":-32,"x_max":914,"o":"m 122 335 l 143 346 q 156 361 153 353 l 161 382 l 157 392 q 147 396 150 396 l 128 392 l 108 382 q 90 367 96 376 l 76 346 l 92 335 l 99 332 l 122 335 m 592 676 l 607 661 l 622 642 l 638 626 l 638 704 l 719 732 l -32 732 l -32 775 l 914 775 l 914 732 l 733 732 l 733 650 l 732 640 q 726 633 729 635 l 717 625 l 703 617 l 672 601 l 651 592 q 581 606 633 606 q 478 590 535 606 q 333 518 404 571 q 300 489 314 503 l 279 458 q 272 431 275 449 q 328 368 272 394 q 418 340 371 346 q 456 339 436 338 l 490 340 l 529 340 q 553 346 543 340 l 551 356 l 551 368 q 664 510 551 469 q 733 521 697 521 q 803 494 772 521 q 833 425 828 472 q 775 328 833 372 q 703 286 742 303 q 615 263 679 276 q 678 146 639 192 q 712 113 696 122 q 749 101 728 104 q 847 144 811 101 l 851 119 l 854 97 q 849 60 854 74 l 836 29 q 790 1 821 6 q 660 75 715 1 q 610 160 626 119 q 581 263 593 200 q 547 169 574 219 q 315 29 474 29 q 200 63 253 29 q 164 100 181 78 q 153 144 153 122 q 218 213 153 188 l 161 214 q 42 247 85 215 q -7 332 -7 281 q 38 396 -7 369 q 125 425 83 422 q 147 425 139 425 q 168 418 160 425 l 188 407 q 200 392 197 400 l 204 374 q 176 329 204 347 l 146 315 l 111 311 l 81 317 q 63 325 68 319 l 67 293 q 121 247 81 265 l 161 242 l 196 242 q 226 244 217 242 l 254 249 l 281 256 l 293 254 l 306 251 l 317 247 l 329 242 l 340 231 l 350 224 l 354 218 l 357 213 q 350 201 353 204 l 338 199 q 221 135 256 199 q 210 93 210 114 q 224 80 211 86 q 258 74 236 74 q 446 128 368 74 q 526 226 500 165 q 539 269 533 243 q 311 328 403 269 q 240 395 261 360 q 218 479 218 431 q 321 621 218 563 q 581 682 431 682 q 592 676 589 679 m 801 447 q 793 457 796 454 l 779 463 l 763 465 q 701 456 732 465 q 647 431 678 447 l 625 411 l 608 392 l 597 372 l 594 354 l 635 360 q 747 389 690 365 q 782 406 774 400 q 804 436 801 418 l 801 447 z "},"5":{"ha":688,"x_min":-11,"x_max":707,"o":"m 133 467 q 60 535 82 494 q 50 578 53 554 q 89 658 50 619 q 135 696 108 678 l 197 731 l -11 732 l -11 775 l 707 775 l 707 732 l 265 732 l 315 676 q 183 626 240 663 q 126 549 126 589 q 153 500 126 524 l 182 485 l 217 479 l 238 479 q 301 493 282 479 l 328 468 l 344 451 l 350 444 l 354 439 l 360 431 l 364 425 q 188 352 256 403 q 121 242 121 301 q 132 197 121 218 q 215 138 156 154 q 274 131 242 131 q 522 206 415 131 q 650 403 628 282 q 539 354 610 354 q 440 403 481 354 q 399 529 399 453 q 486 636 399 596 q 546 654 510 647 q 658 588 610 654 q 707 425 707 521 q 607 179 707 282 q 493 99 556 126 q 358 74 436 74 q 150 139 238 74 q 85 208 107 171 q 64 297 64 246 q 97 382 64 340 l 136 418 l 189 450 q 154 457 171 453 q 133 467 146 461 m 612 447 q 628 463 612 447 q 644 529 644 479 q 639 549 644 539 l 628 564 l 613 574 l 596 578 q 501 542 546 578 q 464 506 481 529 q 454 472 457 494 l 458 446 q 497 414 468 424 l 525 410 q 612 447 579 414 z "},"6":{"ha":701,"x_min":17,"x_max":731,"o":"m 448 628 q 461 619 448 628 q 497 575 475 610 l 497 688 l 588 722 l 17 722 l 17 764 l 731 764 l 731 722 l 601 722 l 601 585 q 553 521 601 542 l 547 517 l 542 514 l 535 510 l 529 506 l 518 500 l 511 499 l 506 500 l 500 510 l 488 532 l 483 542 q 407 575 469 575 q 206 492 289 575 q 122 292 122 408 q 179 174 122 222 q 318 126 236 126 q 515 194 422 126 q 607 339 607 263 q 663 222 663 275 q 633 174 663 197 l 600 147 l 557 122 q 451 82 518 100 q 343 69 404 69 q 151 153 231 69 q 88 247 107 197 q 68 361 68 296 q 160 563 68 481 q 379 644 249 640 q 448 628 421 646 z "},"7":{"ha":757,"x_min":8,"x_max":764,"o":"m 457 656 l 468 643 l 479 625 l 490 606 l 490 704 l 572 732 l 8 732 l 8 775 l 764 775 l 764 732 l 588 732 l 588 565 l 585 558 l 579 553 l 568 546 l 553 535 q 683 350 661 497 q 686 311 686 332 q 663 219 686 261 q 550 115 626 154 q 496 90 518 97 q 378 74 446 74 q 150 158 243 74 q 78 254 100 204 q 57 368 57 304 q 172 573 57 486 q 449 660 288 660 q 457 656 456 658 m 529 204 q 611 338 596 263 q 615 382 615 363 q 581 467 615 428 q 496 507 547 507 q 371 450 436 507 l 360 474 l 357 493 q 397 542 357 522 q 447 558 417 551 l 504 564 l 479 575 l 456 585 l 431 589 l 406 592 q 300 571 350 592 q 204 503 242 544 l 164 457 q 117 360 132 421 l 111 311 q 173 183 111 238 q 321 131 235 128 q 529 204 449 133 z "},"8":{"ha":813,"x_min":10,"x_max":819,"o":"m 97 569 l 122 586 l 156 603 l 194 619 q 124 450 124 549 q 193 226 124 313 l 228 193 q 272 167 246 179 l 324 150 l 376 144 q 603 203 511 144 q 696 354 696 263 q 689 383 696 371 q 644 425 679 411 l 614 431 q 488 400 549 431 q 458 382 479 396 q 388 394 418 382 q 333 427 357 406 q 290 479 308 449 q 278 542 278 507 q 329 613 278 578 q 393 642 349 625 q 490 667 410 649 q 583 703 550 681 q 600 718 596 711 q 600 731 604 725 l 10 732 l 10 775 l 819 775 l 819 732 l 628 732 l 690 683 q 644 629 690 654 q 592 606 624 618 l 453 572 q 397 550 425 565 l 375 538 l 360 526 l 350 514 l 347 501 q 357 467 347 485 q 390 436 367 454 q 425 465 407 457 l 472 489 l 526 501 l 586 507 q 694 447 651 507 q 736 342 728 400 q 739 297 739 322 q 657 141 739 208 q 458 74 575 74 q 172 179 281 74 q 88 304 114 235 q 61 465 61 374 q 82 556 61 524 l 97 569 z "},"9":{"ha":757,"x_min":-7,"x_max":757,"o":"m 411 636 l 426 624 l 443 604 l 461 578 l 461 704 l 539 732 l -7 732 l -7 775 l 757 775 l 757 732 l 554 732 l 554 565 l 528 553 l 504 544 l 485 536 l 475 535 l 436 557 l 418 564 l 407 565 q 399 568 400 567 l 388 568 l 378 569 q 281 550 328 569 q 144 411 182 510 q 126 311 126 364 q 182 183 126 236 q 315 131 238 131 q 542 190 449 131 q 636 339 636 250 l 632 358 l 621 374 l 601 383 q 579 388 593 388 q 475 360 525 388 q 400 283 421 329 q 385 221 385 251 q 407 158 385 174 l 364 176 l 331 201 l 308 228 q 301 256 304 238 q 456 422 301 374 q 554 436 499 436 q 607 425 585 436 q 681 354 660 407 q 693 297 693 324 q 593 141 693 208 q 344 74 493 74 q 131 155 221 74 q 42 354 42 236 q 146 556 42 472 q 399 640 250 640 q 411 636 408 639 z "}," ":{"ha":458,"x_min":0,"x_max":0,"o":""},"!":{"ha":521,"x_min":44,"x_max":472,"o":"m 94 550 q 76 568 94 550 q 58 635 58 586 q 126 733 58 693 q 296 774 194 774 q 363 763 335 774 q 440 715 407 751 q 472 635 472 679 q 424 549 472 597 l 367 506 q 296 465 343 488 q 143 368 143 392 q 151 347 143 360 l 176 326 l 215 304 l 268 283 q 401 206 360 247 q 451 108 451 164 l 447 96 l 438 74 l 339 75 l 349 92 l 353 115 q 342 156 353 136 q 313 197 332 176 q 268 229 293 217 l 214 256 q 92 310 136 274 q 57 345 69 326 q 44 382 44 364 q 82 432 44 406 l 126 464 l 186 501 q 94 550 131 514 m 208 529 l 206 521 q 356 606 304 564 q 410 682 407 647 l 406 701 l 393 717 l 374 726 l 353 731 q 206 697 269 731 q 143 611 143 663 l 147 581 q 181 540 157 554 l 206 535 l 208 529 z "},"\"":{"ha":142,"x_min":-560,"x_max":82,"o":"m -317 63 q -299 58 -317 63 q -254 44 -281 54 q -229 33 -236 38 q -149 -7 -201 21 q -110 -32 -133 -15 q 82 -236 42 -137 l 24 -278 l 17 -254 l 4 -232 l -11 -207 l -31 -185 l -76 -136 l -133 -89 q -254 -17 -182 -49 q -351 7 -307 7 q -468 -22 -419 7 q -517 -90 -517 -50 q -511 -108 -517 -99 l -499 -124 l -478 -133 q -456 -137 -467 -139 l -435 -136 l -415 -133 l -396 -125 l -375 -114 l -347 -89 q -337 -62 -340 -78 l -339 -40 l -343 -21 l -335 -24 l -319 -33 l -310 -42 q -282 -74 -296 -54 q -274 -110 -274 -90 l -276 -124 l -285 -139 l -299 -153 l -318 -167 l -361 -187 q -406 -194 -386 -194 q -465 -183 -439 -194 q -533 -133 -506 -171 q -560 -54 -560 -96 q -506 32 -560 -6 q -379 69 -456 67 q -317 63 -353 71 z "},"#":{"ha":597,"x_min":53,"x_max":565,"o":"m 257 763 q 328 774 297 774 q 428 744 383 774 q 494 663 474 714 q 508 592 508 626 q 481 514 508 550 q 443 481 467 497 l 397 458 q 463 440 431 458 q 536 377 507 422 q 565 283 565 332 q 472 136 565 194 q 236 74 372 74 q 96 115 151 74 l 82 138 q 71 160 78 151 l 57 188 l 53 207 q 68 221 56 221 l 96 194 l 136 175 q 185 163 168 164 l 236 158 q 346 171 283 154 q 496 260 450 196 q 517 325 517 289 q 506 357 517 342 q 433 401 489 388 q 375 410 400 410 q 200 360 265 410 l 174 413 q 165 444 165 429 l 168 450 l 176 456 l 182 458 l 189 461 l 194 463 l 200 465 q 389 554 329 513 q 461 640 461 603 q 411 706 461 685 l 383 711 q 342 708 356 711 l 301 700 q 258 686 281 696 l 214 667 l 178 643 l 153 621 l 138 599 l 132 578 l 135 568 l 138 564 q 65 638 65 596 l 65 643 l 68 649 l 82 668 q 106 689 88 676 l 135 710 l 174 731 l 257 763 z "},"$":{"ha":806,"x_min":50,"x_max":749,"o":"m 183 718 l 247 667 l 311 606 l 372 542 q 693 758 489 665 q 749 668 719 743 l 744 672 l 736 675 l 735 675 l 651 632 l 574 588 q 501 540 528 561 l 435 488 l 483 429 q 518 372 499 411 l 539 314 q 546 256 546 282 q 530 184 546 218 q 490 128 514 150 q 425 86 467 106 q 350 74 392 74 q 239 129 282 74 q 202 194 215 157 q 189 269 189 231 q 250 415 189 326 q 278 449 261 431 l 344 521 q 50 689 226 657 q 126 758 71 728 l 183 718 m 421 189 q 463 297 463 232 q 407 458 463 392 q 246 226 246 322 q 268 168 246 190 q 292 150 278 156 l 322 144 q 350 147 342 146 q 421 189 388 153 z "},"%":{"ha":750,"x_min":107,"x_max":693,"o":"m 358 775 q 442 731 403 769 q 265 661 343 731 q 183 507 183 588 q 208 439 183 467 q 238 417 221 425 q 274 410 250 413 q 499 488 438 410 q 483 513 493 493 l 478 549 q 503 608 478 583 q 568 635 524 629 q 600 629 586 635 q 628 610 614 624 q 651 549 647 586 q 628 476 651 513 l 599 443 l 560 417 q 690 194 667 332 q 693 158 693 178 q 638 58 693 86 q 603 51 626 54 q 526 93 560 51 l 526 99 l 533 107 l 560 131 q 610 179 575 144 q 625 213 625 197 l 625 240 q 603 307 622 261 q 576 351 593 331 l 540 396 q 437 347 482 363 q 344 332 392 332 q 178 394 246 332 q 124 463 142 428 q 107 549 107 497 q 118 611 107 582 q 214 731 144 679 q 289 774 247 754 l 358 775 z "},"&":{"ha":688,"x_min":71,"x_max":638,"o":"m 151 458 q 140 463 151 458 q 108 490 129 468 q 81 542 94 510 q 71 606 71 581 q 78 632 71 619 l 99 660 l 133 689 l 179 717 l 231 740 l 285 758 l 338 769 l 390 774 q 476 703 431 776 l 447 711 l 393 707 q 336 697 376 706 q 293 681 318 693 l 238 654 q 193 626 211 642 l 171 611 q 160 599 163 603 q 139 569 146 582 l 133 542 q 161 493 133 518 l 193 478 l 229 472 q 419 529 303 472 l 476 460 q 193 328 290 407 q 139 242 139 285 q 189 176 139 200 q 243 156 214 164 l 308 150 q 388 158 336 147 q 535 226 467 175 q 594 283 569 253 l 638 214 q 507 110 583 151 q 363 74 440 74 q 167 138 249 74 q 85 297 85 203 q 153 418 85 367 q 204 444 175 435 q 151 458 172 447 z "},"'":{"ha":0,"x_min":-681,"x_max":-51,"o":"m -597 -46 q -542 -178 -597 -121 q -408 -236 -487 -236 q -257 -208 -331 -236 q -135 -118 -174 -175 q -114 -46 -114 -87 q -117 -22 -114 -31 l -128 -1 l -144 10 l -164 15 q -215 6 -196 15 l -240 -7 l -265 -28 q -318 -117 -318 -72 l -311 -136 q -304 -150 -307 -147 q -333 -129 -324 -140 l -356 -104 q -368 -75 -365 -90 l -374 -46 q -311 33 -374 -10 l -281 50 l -251 63 l -222 71 l -193 74 q -93 28 -131 74 q -62 -22 -74 8 q -51 -81 -51 -53 q -134 -219 -51 -160 q -346 -278 -217 -278 q -474 -262 -414 -278 q -654 -153 -600 -231 q -681 -74 -681 -115 q -646 -4 -681 -39 q -585 22 -619 15 q -561 24 -578 24 q -597 -46 -592 3 z "},"(":{"ha":625,"x_min":61,"x_max":592,"o":"m 311 772 q 329 764 311 772 q 371 731 347 756 q 424 592 424 672 q 388 503 424 542 q 299 465 353 465 q 165 564 224 465 l 203 538 q 235 529 219 529 q 351 610 319 529 q 361 660 361 636 q 340 706 361 693 q 318 719 333 714 l 290 725 q 197 696 240 725 q 135 619 153 667 q 124 556 124 592 q 179 474 124 524 q 244 422 218 439 l 333 368 q 521 226 450 297 q 592 101 592 156 q 565 33 592 63 q 532 8 551 18 q 494 1 521 4 q 428 24 458 1 q 399 50 407 36 l 375 88 l 410 64 l 438 57 q 515 99 496 57 q 522 131 519 110 q 465 225 522 168 q 313 339 408 282 q 129 468 193 390 l 99 506 l 78 544 q 65 582 67 564 l 61 619 q 92 714 61 672 q 172 775 122 756 q 242 788 203 786 q 311 772 275 788 z "},")":{"ha":660,"x_min":63,"x_max":621,"o":"m 482 742 q 603 557 565 685 q 621 425 621 492 q 535 176 621 278 q 328 74 450 74 q 140 184 218 74 q 63 450 63 294 q 156 679 63 586 q 383 774 249 772 q 482 742 435 774 m 478 240 q 567 479 567 338 q 554 571 567 531 q 472 686 528 653 q 411 703 443 703 q 203 600 290 703 q 138 488 161 550 q 117 354 117 432 q 129 267 117 307 q 211 158 149 197 q 272 144 243 143 q 478 240 393 149 z "},"*":{"ha":715,"x_min":68,"x_max":649,"o":"m 561 767 l 589 753 l 603 742 l 619 733 l 633 725 l 649 717 q 265 535 417 675 q 110 213 110 390 q 144 164 110 182 l 185 149 l 235 144 q 317 156 264 142 q 458 232 383 171 q 524 297 493 260 l 538 311 q 549 301 546 306 l 567 279 l 582 256 l 600 235 l 599 232 l 597 228 l 594 225 l 592 221 q 451 113 528 147 q 278 74 365 74 q 132 132 190 74 q 68 283 68 193 q 200 581 68 444 q 440 739 297 681 q 543 774 486 757 l 561 767 z "},"+":{"ha":0,"x_min":-199,"x_max":-71,"o":"m -71 858 l -135 794 l -199 858 l -135 922 l -71 858 z "},",":{"ha":340,"x_min":58,"x_max":196,"o":"m 175 183 q 190 153 183 172 l 196 118 q 189 61 196 90 q 171 10 186 38 q 140 -27 163 -3 q 100 -62 118 -51 l 79 -35 q 118 29 110 -22 q 121 69 121 44 l 94 74 q 63 113 72 83 l 58 140 l 63 167 q 100 203 71 192 l 128 208 q 175 183 150 213 z "},"-":{"ha":313,"x_min":63,"x_max":249,"o":"m 249 -65 l 238 -75 q 103 116 143 18 q 63 347 63 214 q 103 578 63 481 q 238 769 143 676 l 249 760 q 153 563 181 654 q 125 347 125 471 q 153 131 125 224 q 249 -65 181 39 z "},".":{"ha":522,"x_min":286,"x_max":408,"o":"m 286 3 l 286 699 l 408 699 l 408 3 l 286 3 z "},"/":{"ha":715,"x_min":11,"x_max":713,"o":"m 219 549 q 299 442 265 524 q 321 360 313 407 q 394 396 357 372 q 492 503 465 440 q 503 564 503 532 q 452 680 503 629 q 329 731 401 731 q 240 714 293 731 q 146 668 203 701 q 215 775 164 735 q 335 815 267 815 q 418 806 386 815 q 468 774 450 796 l 713 775 l 713 732 l 496 732 q 518 704 511 718 l 538 665 l 549 617 l 553 564 q 538 476 556 528 q 428 329 506 386 q 342 283 392 303 q 413 157 374 193 q 454 119 429 135 q 496 108 472 111 q 563 133 535 108 q 586 164 578 147 q 593 199 590 175 l 592 222 l 588 242 l 592 247 l 610 239 l 621 226 l 628 214 l 632 196 l 633 172 l 635 144 q 603 44 638 89 q 562 13 586 24 q 517 1 538 1 q 415 72 467 1 q 315 269 356 154 l 294 263 l 272 258 q 246 256 256 258 l 217 256 q 95 308 142 256 q 49 436 49 361 q 85 526 49 496 q 174 564 115 563 q 219 549 197 565 m 247 338 q 293 354 267 340 q 278 397 289 382 q 224 456 265 433 q 188 465 206 465 q 168 460 179 465 l 150 446 l 136 429 q 132 410 132 421 l 136 379 q 169 338 144 351 l 196 332 l 247 338 m 103 732 l 11 732 l 11 775 l 139 775 l 103 732 z "},":":{"ha":688,"x_min":-18,"x_max":706,"o":"m 192 549 q 269 446 243 521 q 293 360 282 410 q 321 371 304 364 q 463 503 428 419 q 474 564 474 532 q 423 683 474 635 q 300 731 372 731 q 211 714 264 731 q 117 668 174 701 q 186 775 133 735 q 307 815 239 815 q 390 806 358 815 q 440 774 422 796 l 706 775 l 706 732 l 468 732 q 490 704 483 718 l 510 665 l 521 617 l 525 564 q 510 476 528 529 q 313 283 463 340 l 329 240 q 385 157 350 189 q 426 119 401 135 q 468 108 444 111 q 558 163 533 108 q 565 199 563 175 l 564 210 l 564 221 l 561 231 l 558 242 l 564 247 q 582 240 575 247 l 593 226 q 607 144 607 210 q 533 11 607 50 q 488 1 508 1 q 386 72 438 1 q 286 269 326 154 l 265 263 l 243 258 q 217 256 226 258 l 188 256 q 69 308 118 256 q 21 436 21 361 q 57 526 21 496 q 146 564 88 563 q 192 549 169 565 m 219 338 q 264 354 240 342 q 197 456 251 426 q 160 465 179 465 q 140 460 151 465 l 121 446 l 107 426 l 103 410 l 107 379 q 142 338 115 353 l 168 332 l 219 338 m 75 732 l -18 732 l -18 775 l 111 775 l 75 732 m 706 467 l 690 463 l 674 454 l 572 382 q 556 426 561 400 l 550 488 q 606 501 565 494 l 706 507 l 706 467 z "},";":{"ha":972,"x_min":-3,"x_max":972,"o":"m 206 549 q 283 440 253 521 q 306 360 294 411 q 381 396 349 375 q 489 564 489 467 q 438 683 489 635 q 314 731 388 731 q 225 715 268 731 q 139 668 182 699 q 219 789 139 747 q 319 815 269 815 q 392 804 367 815 q 461 774 431 793 l 972 775 l 972 732 l 838 732 l 836 696 l 835 615 q 833 565 835 603 q 832 517 832 535 l 833 133 l 838 74 q 742 144 778 92 l 736 192 l 733 344 l 733 465 q 688 446 721 465 q 600 388 644 421 l 585 432 l 579 488 q 635 501 594 494 l 733 507 l 733 563 l 736 647 l 742 689 l 818 732 l 489 732 q 538 564 538 674 q 522 475 538 519 q 414 331 493 389 q 328 283 378 303 q 447 119 364 175 q 494 108 472 108 q 553 133 528 108 q 579 199 574 154 q 576 226 579 217 l 572 249 q 607 218 590 249 l 618 183 l 622 144 q 549 11 622 50 q 503 1 524 1 q 403 72 454 1 q 300 269 347 146 l 279 263 l 257 258 l 232 256 l 201 256 q 81 310 129 256 q 33 436 33 364 q 71 528 33 493 q 161 564 108 563 q 206 549 183 564 m 232 338 q 278 354 251 340 q 263 397 274 379 q 226 444 253 424 q 172 465 200 465 l 150 461 l 133 450 l 121 432 l 118 410 l 122 379 q 156 338 131 351 l 181 332 l 232 338 m 90 732 l -3 732 l -3 775 l 124 775 l 90 732 z "},"<":{"ha":493,"x_min":47,"x_max":458,"o":"m 257 774 q 332 758 296 774 q 424 681 390 733 q 458 564 458 628 q 325 396 458 489 q 206 263 224 325 l 197 257 l 192 256 l 182 260 l 174 272 l 167 290 l 165 311 q 188 378 164 336 q 207 403 196 392 l 257 454 l 325 507 q 389 569 375 546 q 410 635 410 603 q 378 683 410 663 l 340 697 l 297 703 q 165 642 228 703 q 114 533 114 592 l 115 526 l 115 521 l 85 557 l 64 586 l 51 608 l 47 626 l 51 649 l 65 674 l 75 686 l 86 700 l 100 713 l 115 725 q 146 743 121 731 q 257 774 203 774 m 182 206 q 200 213 186 210 q 218 206 211 213 l 239 186 l 256 163 q 263 144 260 157 q 256 125 263 136 l 239 100 l 217 79 l 200 74 l 182 79 l 160 100 l 143 125 l 138 144 q 160 186 138 161 l 182 206 z "},"=":{"ha":361,"x_min":153,"x_max":290,"o":"m 221 -8 l 194 -4 q 172 10 182 0 l 157 32 l 153 58 l 157 85 q 172 107 161 97 q 194 122 179 115 l 221 128 q 269 107 251 128 q 285 85 278 100 l 290 58 q 270 10 290 29 q 221 -8 250 -8 z "},">":{"ha":701,"x_min":-117,"x_max":726,"o":"m 126 450 l 71 488 q -6 635 -6 560 q 40 736 -6 692 q 140 793 81 775 q 231 807 186 807 q 324 786 293 807 q 369 735 349 768 q 400 651 396 690 l 406 592 q 394 549 406 565 q 318 457 371 499 q 258 417 294 439 q 490 354 374 354 l 490 451 l 492 525 q 492 556 492 525 q 493 574 492 561 q 494 592 494 586 l 499 689 l 497 696 l 497 703 l 574 732 l 454 732 l 435 775 l 726 775 l 726 732 l 596 732 l 583 569 l 581 425 q 582 336 581 410 q 583 244 582 300 l 596 74 q 542 101 560 88 q 497 144 519 118 l 497 293 q 168 88 297 196 l 92 151 l 158 203 q 232 249 190 228 l 311 289 l 397 325 q 217 396 308 342 q 42 343 104 358 q -82 325 -32 325 q -117 425 -110 378 l -101 418 l -82 414 l -64 411 l -49 410 q 126 450 43 410 m 249 524 l 282 547 q 349 617 325 578 q 364 654 361 636 q 343 708 364 686 q 317 725 332 719 l 288 731 q 213 719 242 731 q 90 653 131 700 q 69 611 72 632 q 96 536 69 575 l 126 501 q 168 472 146 485 q 249 524 214 499 z "},"?":{"ha":944,"x_min":8,"x_max":964,"o":"m 203 550 q 281 456 253 524 q 303 382 294 422 q 497 508 443 415 q 513 564 513 536 q 404 693 513 656 q 338 703 374 703 q 156 654 210 703 q 204 731 156 708 l 8 732 l 8 775 l 964 775 l 964 732 l 469 732 l 501 704 q 528 672 521 688 l 546 635 q 554 592 554 606 q 644 632 594 622 q 679 635 660 635 q 800 586 747 635 q 868 472 844 542 q 883 368 883 422 q 829 210 883 275 q 693 144 775 144 q 643 181 665 144 l 617 224 l 594 278 q 624 261 606 268 l 665 256 q 819 378 774 256 q 833 458 833 415 q 756 554 833 522 q 701 564 731 564 q 607 547 650 564 q 547 501 574 535 q 464 385 531 440 q 308 297 403 333 q 369 186 339 221 q 406 154 385 168 q 442 144 421 147 q 508 169 485 144 q 526 226 526 189 q 561 144 554 199 q 554 106 561 121 q 508 50 544 71 q 476 43 497 46 q 421 60 453 43 q 311 185 358 100 q 267 283 288 225 l 246 281 l 226 279 q 147 292 190 276 q 56 375 92 314 q 43 436 43 403 q 75 526 43 488 q 156 564 107 564 q 203 550 181 567 m 206 344 q 253 360 231 347 q 224 456 242 428 l 213 472 l 204 483 l 193 490 l 183 493 q 156 486 169 493 l 128 465 l 106 439 q 99 410 101 431 l 103 383 l 115 360 l 133 344 l 156 339 l 206 344 z "},"@":{"ha":750,"x_min":56,"x_max":699,"o":"m 251 440 q 336 382 293 418 q 538 514 461 440 q 614 649 614 588 q 608 675 614 664 q 590 697 603 686 l 563 711 l 532 717 q 358 660 449 717 q 293 606 314 632 q 272 549 272 579 l 279 531 q 200 585 226 543 l 194 606 q 204 632 194 619 l 226 661 l 260 690 l 304 717 q 413 760 346 742 q 518 774 467 774 q 631 715 586 774 q 671 592 671 663 q 600 456 671 529 q 404 325 529 382 l 622 146 l 669 111 l 699 101 l 676 90 l 658 82 l 642 75 l 628 74 q 565 101 593 74 l 371 299 q 296 265 333 278 q 224 256 250 256 q 104 296 147 256 q 56 396 56 332 q 117 467 56 444 q 154 472 133 472 q 251 440 192 472 m 190 321 l 235 332 l 260 340 l 294 353 q 308 360 306 357 q 194 410 250 410 l 161 406 q 135 394 144 401 l 118 376 l 113 354 q 115 339 113 344 l 126 328 l 142 319 l 161 318 l 190 321 z "},"A":{"ha":493,"x_min":13,"x_max":524,"o":"m 415 672 l 426 667 l 440 653 l 476 597 l 461 600 l 438 601 q 331 574 388 604 q 281 542 306 560 q 410 318 343 371 l 435 346 l 454 379 l 467 417 l 472 457 l 524 340 q 422 210 501 263 q 251 160 349 160 q 113 222 168 160 q 57 368 57 285 q 170 578 57 483 q 415 672 283 672 m 260 210 q 340 253 304 221 l 381 289 q 340 326 361 303 l 306 378 l 272 440 l 242 519 l 200 476 l 168 429 q 147 375 156 404 l 142 318 q 164 239 142 269 q 224 204 189 204 l 260 210 m 524 732 l 13 732 l 13 775 l 524 775 l 524 732 z "},"B":{"ha":743,"x_min":-11,"x_max":749,"o":"m 68 481 l 50 497 l 39 515 l 31 532 l 29 549 q 90 638 26 586 q 183 679 142 671 q 218 682 197 682 l 233 679 q 250 671 242 679 q 265 656 257 668 l 281 635 l 281 704 l 365 732 l -11 732 l -11 775 l 749 775 l 749 732 l 618 732 l 606 569 l 603 425 q 604 336 603 410 q 606 244 604 300 l 618 74 q 513 144 549 101 l 513 257 q 315 144 444 144 q 143 185 207 144 q 71 283 71 229 q 176 425 71 365 q 147 435 160 429 q 68 481 100 451 m 396 249 q 513 425 469 311 l 513 471 l 519 703 l 589 732 l 379 732 l 379 621 q 310 583 339 583 l 296 593 l 269 606 l 239 611 q 117 549 149 611 q 106 507 106 528 q 111 490 106 499 q 131 472 117 481 l 160 461 l 196 458 q 310 493 267 453 l 315 496 l 322 497 q 358 465 342 497 l 364 447 l 372 433 l 376 424 l 379 417 q 289 390 335 410 q 172 307 204 356 q 156 256 156 282 q 179 206 156 226 l 206 190 l 239 186 q 281 190 261 188 q 396 249 338 199 z "},"C":{"ha":1021,"x_min":-14,"x_max":1031,"o":"m 331 646 q 414 549 388 619 q 425 479 425 515 q 415 409 425 438 q 383 354 406 381 l 392 347 l 496 467 l 496 532 l 497 593 q 497 619 497 593 q 500 650 497 632 l 500 675 q 503 703 500 686 l 586 732 l -14 732 l -14 775 l 1031 775 l 1031 732 l 601 732 l 597 506 q 594 481 594 489 l 593 436 q 663 464 628 436 l 693 497 q 719 542 704 510 l 708 565 l 706 597 q 751 663 701 643 l 782 668 q 839 621 831 668 l 844 592 q 835 551 844 569 q 803 515 825 533 q 947 307 914 425 q 958 235 958 268 q 853 97 958 140 q 789 88 814 88 q 692 186 747 93 l 701 176 l 721 169 l 747 165 l 782 164 q 851 194 819 163 q 872 228 864 210 q 879 269 876 240 q 768 479 879 388 l 711 435 l 663 404 q 622 386 642 392 l 593 382 l 593 286 l 594 214 q 594 185 594 214 q 596 169 594 179 q 597 149 597 156 l 601 74 l 581 81 q 557 96 571 83 l 531 118 l 503 144 l 501 186 l 499 250 l 499 296 q 496 314 496 308 l 496 354 l 314 197 l 217 118 l 153 74 q 121 96 136 78 l 113 106 l 106 119 l 97 133 l 89 150 q 260 264 196 201 q 363 414 329 331 q 383 521 383 467 q 378 558 383 540 q 363 585 374 575 q 313 611 351 606 q 221 592 264 611 q 113 498 151 560 q 75 360 75 436 l 35 439 l 21 479 q 190 647 61 606 q 272 660 222 658 q 331 646 307 661 z "},"D":{"ha":604,"x_min":1,"x_max":626,"o":"m 317 697 q 292 731 308 714 l 1 732 l 1 775 l 626 775 l 626 732 l 410 732 q 439 611 435 678 q 439 578 439 594 q 571 604 504 599 q 626 606 588 606 l 619 522 q 439 493 511 522 l 439 326 q 381 167 439 233 q 242 101 324 101 q 100 165 158 101 q 53 237 68 201 q 39 325 39 272 q 124 439 39 376 q 221 496 167 469 q 346 549 261 515 q 343 604 346 581 q 317 697 338 654 m 269 181 q 335 269 313 210 q 346 339 346 303 l 346 467 q 249 422 300 450 q 124 319 154 372 q 108 269 108 293 q 131 190 108 217 q 193 158 154 163 q 269 181 240 163 z "},"E":{"ha":563,"x_min":10,"x_max":590,"o":"m 347 621 q 340 678 347 657 q 299 761 333 731 q 269 774 286 771 l 229 769 q 192 758 204 764 q 221 742 208 754 q 243 719 232 735 l 257 692 l 263 660 q 218 594 263 626 q 156 567 188 572 q 129 564 146 564 q 44 598 78 564 q 10 682 10 632 q 65 796 10 749 q 200 843 121 843 q 361 754 274 843 q 397 710 386 728 l 422 667 q 438 622 429 654 l 443 578 q 590 640 549 604 l 590 550 l 563 535 l 531 521 l 490 507 l 443 493 l 443 426 q 374 176 443 278 q 206 74 306 74 q 67 139 126 74 q 14 253 26 183 q 10 297 10 275 q 103 440 10 369 q 347 549 190 507 l 347 621 m 293 189 q 343 296 332 233 q 347 339 347 318 l 347 460 q 211 409 269 438 q 131 356 153 381 q 98 296 110 332 q 86 226 86 260 q 108 160 86 182 q 135 138 121 146 q 165 131 144 133 q 293 189 249 136 m 132 626 l 172 649 q 214 711 214 672 q 179 753 214 736 q 113 721 149 744 q 63 672 76 697 q 53 640 53 656 l 54 632 l 64 626 l 78 621 l 94 619 q 132 626 119 622 m 590 732 l 465 732 l 454 775 l 590 775 l 590 732 z "},"F":{"ha":319,"x_min":-6,"x_max":336,"o":"m 336 732 l 204 732 l 193 578 l 190 425 q 193 238 190 428 q 204 74 194 168 q 107 144 149 96 l 101 272 l 103 661 l 107 703 l 190 732 l -6 732 l -6 775 l 336 775 l 336 732 z "},"G":{"ha":472,"x_min":-8,"x_max":496,"o":"m 279 501 l 356 526 l 413 542 l 454 547 l 496 472 l 454 464 l 385 447 l 342 433 l 306 422 q 275 411 293 418 l 254 403 q 371 339 328 385 q 414 236 414 293 q 363 122 414 174 q 308 90 339 103 q 240 76 276 76 q 160 92 193 76 q 47 213 81 129 q 33 300 33 249 q 76 398 33 353 q 179 465 118 443 l 279 501 m 307 214 q 317 258 317 236 q 288 329 317 292 q 251 358 272 347 l 207 382 q 139 333 172 364 q 121 314 128 324 q 89 243 93 283 q 115 174 89 204 q 147 147 128 158 q 185 140 158 143 q 307 214 276 140 m 496 722 l -8 722 l -8 764 l 496 764 l 496 722 z "},"H":{"ha":604,"x_min":4,"x_max":635,"o":"m 108 583 l 192 617 q 140 540 157 585 q 122 417 122 494 q 133 324 122 360 q 222 199 163 231 q 288 182 251 182 q 415 223 363 182 q 467 319 467 264 q 433 417 467 375 q 349 458 399 458 l 338 458 l 332 457 l 322 467 l 318 481 l 301 533 q 593 651 428 621 l 635 585 l 571 572 q 510 556 542 567 q 385 499 435 529 q 511 415 456 475 q 558 292 558 361 q 510 184 558 228 q 397 129 463 140 q 357 126 381 126 q 183 186 260 126 q 74 340 107 246 q 51 471 51 401 q 54 515 51 500 l 67 556 q 108 583 75 565 m 635 722 l 4 722 l 4 764 l 635 764 l 635 722 z "},"I":{"ha":590,"x_min":-25,"x_max":618,"o":"m 50 565 q -3 668 -3 611 q 3 694 -3 682 l 24 722 l 57 750 l 101 775 q 311 829 197 829 q 378 818 347 829 q 449 763 419 803 q 478 675 478 724 q 432 600 478 638 q 321 536 393 568 q 204 483 222 493 q 63 368 97 424 q 44 311 44 338 q 51 281 44 293 l 74 257 q 106 240 89 246 l 143 235 l 183 235 q 268 256 210 239 l 257 292 l 254 339 q 276 414 251 379 q 342 463 301 449 q 394 472 368 472 q 471 438 436 472 q 506 354 506 403 q 493 306 506 331 q 407 224 472 263 q 339 193 383 210 q 478 88 400 83 l 506 89 q 550 99 535 90 l 568 108 l 556 58 q 540 19 550 35 l 532 6 l 524 -4 l 514 -10 l 506 -12 l 478 -8 l 453 0 q 425 15 438 6 l 399 38 q 347 97 375 63 q 319 146 329 125 l 303 178 l 283 175 l 264 174 l 238 172 l 197 172 q 42 219 108 172 q -25 339 -25 267 q -15 382 -25 361 q 42 458 4 424 q 101 503 69 483 q 129 521 121 515 q 50 565 79 539 m 281 590 q 404 685 367 636 q 421 731 421 707 q 416 749 421 742 q 397 765 411 757 l 371 775 q 339 779 360 779 q 309 777 329 779 q 281 775 289 775 q 256 769 272 775 l 215 756 l 176 735 l 140 710 l 114 685 l 99 661 l 93 640 q 117 586 93 608 q 146 564 132 569 l 183 549 l 235 567 q 281 590 239 568 m 422 326 q 464 388 458 350 q 435 425 464 424 q 349 382 388 426 l 331 361 l 322 350 l 315 339 l 306 317 l 303 297 q 306 281 303 286 l 311 269 q 422 326 388 299 m 618 571 q 464 521 536 571 q 451 553 456 533 l 449 597 l 492 607 l 532 614 l 572 618 l 618 619 l 618 571 m 618 732 l 550 732 l 528 775 l 618 775 l 618 732 z "},"J":{"ha":451,"x_min":-8,"x_max":479,"o":"m 340 660 q 375 651 358 660 q 428 594 404 642 q 438 551 438 572 l 393 572 q 361 579 385 576 l 336 579 q 275 557 317 576 l 231 528 q 188 488 214 517 q 123 397 144 440 q 101 299 101 353 q 128 228 101 258 l 157 206 q 192 199 168 201 q 268 211 233 199 q 396 333 356 244 q 410 372 403 350 l 479 307 q 386 197 450 239 q 242 154 322 154 q 100 213 160 154 q 54 278 69 242 q 39 354 39 315 q 132 564 39 468 q 340 660 225 660 m 479 732 l -8 732 l -8 775 l 479 775 l 479 732 z "},"K":{"ha":364,"x_min":-7,"x_max":371,"o":"m 371 279 q 276 251 321 251 q 179 276 218 251 q 79 397 111 318 q 65 467 65 428 l 65 621 l -7 621 l -7 701 l 371 701 l 371 621 l 143 621 l 143 426 q 171 349 143 378 q 235 319 199 319 q 278 332 256 319 q 303 347 286 336 q 358 406 338 369 l 371 403 l 371 279 z "},"L":{"ha":326,"x_min":-237,"x_max":336,"o":"m 117 875 q 40 1019 96 975 q -12 1039 14 1039 q -156 932 -117 1039 q -167 864 -167 901 q -146 815 -167 836 l -124 797 l -96 788 l -168 789 l -194 803 l -218 829 l -232 861 l -237 899 l -233 933 l -221 969 l -200 1003 l -172 1039 l -139 1069 l -107 1092 l -74 1106 l -40 1110 q 107 1010 44 1110 q 169 774 169 910 l 336 775 l 336 732 l 204 732 l 193 578 l 190 425 q 193 238 190 428 q 204 74 194 168 q 108 144 149 94 l 101 271 l 103 663 l 108 703 l 185 732 l -6 732 l -6 775 l 128 775 q 117 875 128 822 z "},"M":{"ha":479,"x_min":156,"x_max":281,"o":"m 199 204 q 218 211 208 211 q 236 204 228 211 l 256 185 q 274 161 268 172 l 281 142 q 274 122 281 132 l 257 99 l 235 78 l 218 72 q 199 78 210 72 l 178 99 l 161 124 l 156 142 q 161 160 156 151 l 178 185 l 199 204 m 200 483 l 218 490 l 225 488 l 233 483 l 243 475 l 256 464 q 274 440 267 454 l 281 421 q 256 376 281 400 l 235 357 l 218 351 q 200 357 210 351 l 178 376 l 161 400 l 156 421 q 161 439 156 431 l 178 464 l 200 483 z "},"N":{"ha":625,"x_min":13,"x_max":653,"o":"m 362 647 q 377 640 362 647 q 421 603 392 633 q 476 465 476 546 l 532 504 l 581 533 l 619 553 l 651 564 l 651 517 l 653 506 l 653 483 l 644 476 l 626 471 l 599 457 l 564 436 l 526 406 l 490 368 l 465 386 l 451 397 l 439 407 l 436 417 l 438 432 l 439 443 q 405 536 439 494 q 324 578 371 578 q 190 501 247 578 q 138 367 150 446 q 133 311 133 339 q 146 244 133 274 q 232 156 172 181 q 296 144 258 144 q 428 235 381 144 l 439 211 l 449 188 l 454 164 l 457 144 q 418 99 457 124 q 376 79 400 86 l 338 74 q 132 181 204 74 q 71 410 71 272 q 136 586 71 514 q 296 660 201 658 q 362 647 332 660 m 651 732 l 13 732 l 13 775 l 651 775 l 651 732 z "},"O":{"ha":667,"x_min":4,"x_max":692,"o":"m 174 359 q 181 355 174 359 q 211 328 189 350 l 250 278 q 292 213 275 246 q 485 270 407 213 q 564 410 564 328 q 558 431 564 422 l 546 449 q 525 461 538 457 l 501 465 q 283 382 383 465 q 219 414 240 399 q 136 513 158 457 q 125 569 125 540 q 176 631 125 603 q 299 672 226 660 l 332 678 l 363 686 l 388 692 l 408 699 q 446 731 443 710 l 4 732 l 4 775 l 692 775 l 692 732 l 460 732 l 550 704 q 533 675 550 690 q 492 647 522 664 l 432 622 l 361 606 q 300 590 304 592 q 244 569 263 581 q 211 542 226 557 q 201 515 204 531 l 200 496 q 206 479 200 488 l 215 464 l 229 450 q 342 511 278 490 q 414 529 367 519 l 488 535 q 561 475 532 510 q 606 400 594 435 q 614 346 614 374 q 531 203 614 263 q 326 144 447 144 q 356 100 338 124 l 390 67 l 425 44 q 460 38 436 40 q 499 43 485 38 q 547 69 524 47 q 578 115 569 90 l 604 61 l 614 29 q 582 -24 614 1 q 544 -40 565 -35 l 501 -46 q 381 4 436 -46 q 292 144 331 49 l 221 146 q 92 182 139 147 q 33 278 33 224 q 71 344 33 318 q 146 368 104 368 q 174 359 158 368 m 158 292 q 108 279 126 292 l 93 265 l 89 249 q 100 232 89 239 l 136 221 l 189 214 l 257 213 q 158 292 214 292 z "},"P":{"ha":667,"x_min":1,"x_max":669,"o":"m 1 732 l 1 775 l 669 775 l 669 732 l 493 732 q 526 683 515 708 l 550 629 l 564 569 l 569 507 q 451 338 569 397 q 375 325 418 325 l 269 426 l 307 403 q 346 396 319 399 q 469 451 421 396 q 515 578 515 503 q 460 731 515 667 l 207 732 q 136 472 136 597 q 151 432 136 454 q 169 410 151 431 q 197 383 181 397 l 268 328 q 361 269 275 322 l 415 236 l 464 203 l 507 168 l 544 135 q 596 69 575 107 q 613 15 613 38 q 553 -96 613 -47 q 403 -144 493 -144 q 222 -78 300 -144 q 122 88 143 -12 l 122 106 q 128 121 122 114 l 138 132 l 151 136 l 146 122 l 144 101 q 163 42 143 72 q 228 -19 183 13 q 310 -66 272 -51 q 389 -81 349 -81 q 488 -42 446 -81 q 529 51 529 -4 q 517 92 529 71 q 478 140 499 121 l 450 165 l 418 192 l 382 217 l 340 242 q 132 388 196 328 q 54 507 54 458 q 103 731 54 639 l 1 732 z "},"Q":{"ha":717,"x_min":-7,"x_max":724,"o":"m 724 621 l 579 621 l 579 -14 l 485 74 l 485 393 l 333 393 q 253 372 283 393 q 211 307 222 351 q 207 276 207 290 q 210 250 207 263 q 224 204 210 249 q 246 154 232 176 q 301 83 271 114 l 326 58 q 383 -8 357 26 l 333 -6 l 265 49 q 161 165 224 82 q 117 264 131 206 q 111 311 111 282 q 144 393 111 351 l 57 393 l -6 488 l 485 488 l 485 621 l -7 621 l -7 701 l 724 701 l 724 621 z "},"R":{"ha":569,"x_min":24,"x_max":594,"o":"m 272 596 q 511 635 381 610 l 517 631 l 525 618 l 532 603 l 538 592 l 551 550 q 341 462 438 550 q 244 269 244 374 q 247 242 244 251 l 260 218 l 278 203 q 300 199 286 199 q 417 238 357 199 q 529 353 476 276 q 594 465 564 401 l 594 313 q 507 192 571 240 q 371 144 443 144 q 178 256 231 144 q 161 325 161 289 q 208 449 161 389 q 314 535 250 500 q 64 493 207 493 q 47 542 53 515 l 42 606 q 82 589 60 594 l 132 583 l 197 588 q 272 596 208 588 m 594 732 l 24 732 l 24 775 l 594 775 l 594 732 z "},"S":{"ha":889,"x_min":-7,"x_max":922,"o":"m 253 706 l 324 743 q 393 765 356 756 q 463 774 431 774 q 483 769 474 774 q 507 750 492 764 l 531 724 q 553 689 540 714 l 521 699 l 490 703 q 428 694 461 703 q 240 586 338 672 q 186 529 210 558 l 147 469 q 114 354 114 418 q 140 256 114 297 q 172 222 153 235 q 211 213 188 215 q 339 251 269 213 q 372 274 357 261 l 406 300 l 438 332 l 471 368 q 571 525 531 433 q 604 675 604 601 l 604 704 l 694 732 l 604 732 l 575 775 l 919 775 l 919 732 l 714 732 l 704 621 l 699 531 l 699 479 q 696 456 696 464 l 694 388 q 833 511 744 482 q 890 521 864 521 l 907 517 l 918 507 l 921 499 l 922 489 q 914 465 922 476 q 890 458 907 461 q 763 348 825 458 q 700 131 700 238 q 703 99 700 110 l 714 74 l 668 92 l 633 114 l 611 136 l 604 158 l 604 451 q 460 230 554 315 q 267 144 367 144 q 110 226 176 144 q 43 425 43 307 q 64 510 43 468 q 126 600 85 553 q 185 656 160 638 l 253 706 m 182 732 l -7 732 l -7 775 l 261 775 l 182 732 z "},"T":{"ha":465,"x_min":7,"x_max":494,"o":"m 322 576 q 458 597 390 597 l 494 522 q 367 503 432 522 q 231 443 282 478 l 175 406 q 99 292 99 354 q 129 192 99 236 q 217 140 164 140 q 326 182 257 140 q 338 181 335 182 l 354 168 l 376 140 l 383 121 l 386 101 l 385 94 l 382 90 l 343 75 l 293 69 q 153 122 215 69 q 69 249 96 171 q 51 361 51 300 q 88 439 51 400 q 132 479 113 467 l 188 517 q 322 576 238 550 m 494 722 l 7 722 l 7 764 l 494 764 l 494 722 z "},"U":{"ha":535,"x_min":-50,"x_max":556,"o":"m 299 533 l 326 489 l 340 457 q 243 485 303 485 q 116 438 169 485 q 63 319 63 392 q 89 243 63 278 q 158 208 115 208 q 336 297 264 208 q 408 513 408 386 q 380 609 408 564 q 306 674 351 654 q 243 686 275 686 q 161 674 188 686 q 129 658 142 668 l 104 639 q 144 745 104 700 q 243 790 183 790 q 398 686 332 790 q 464 429 464 582 q 388 225 464 310 q 201 140 311 140 q 56 213 115 140 q 8 294 22 253 q -6 389 -6 335 q 147 561 -6 514 q 243 575 194 575 q 299 533 263 578 m 556 722 l 464 722 l 431 764 l 556 764 l 556 722 m 42 722 l -50 722 l -50 764 l 76 764 l 42 722 z "},"V":{"ha":868,"x_min":-7,"x_max":892,"o":"m 196 550 q 243 497 219 535 q 274 426 267 458 q 283 382 276 414 q 417 463 363 410 q 471 569 471 515 q 460 624 471 601 q 379 700 439 676 q 318 711 350 711 l 293 711 q 168 678 246 711 q 143 661 157 672 q 100 626 119 646 q 171 750 111 699 q 311 801 231 801 q 392 786 357 801 q 506 676 471 760 q 521 597 521 640 q 508 511 521 550 q 393 358 475 418 q 303 311 354 329 q 399 142 319 211 q 575 74 474 74 q 736 113 671 74 q 821 213 799 147 l 842 179 q 753 51 826 104 q 635 4 701 14 q 589 1 615 1 q 387 84 474 1 q 275 297 300 167 l 256 290 l 238 286 l 218 283 l 199 283 q 132 296 163 283 q 42 378 64 321 q 31 436 31 406 q 67 526 31 496 q 156 564 97 563 q 196 550 178 564 m 158 333 l 186 342 l 218 353 l 254 368 q 226 457 244 424 q 178 493 207 490 l 163 490 l 147 482 l 132 469 l 118 454 q 86 382 92 425 l 89 363 l 101 347 q 117 335 110 338 l 136 332 l 158 333 m 79 732 l -7 732 l -7 775 l 122 775 l 79 732 m 774 675 q 801 664 786 675 q 861 597 838 644 q 869 564 868 581 l 838 585 l 814 592 q 721 572 765 592 q 613 478 651 542 q 575 339 575 415 l 579 301 q 617 250 589 264 q 646 242 628 244 q 780 308 714 242 q 892 493 846 374 l 888 443 q 885 404 888 428 l 883 376 l 883 360 q 824 264 860 304 q 717 196 772 210 q 688 193 704 193 q 569 252 617 193 q 521 396 521 311 q 604 581 521 486 q 774 675 688 675 m 892 732 l 593 732 l 560 775 l 892 775 l 892 732 z "},"W":{"ha":458,"x_min":17,"x_max":521,"o":"m 69 560 q 17 649 17 604 q 98 785 17 726 q 297 843 179 843 q 403 799 356 843 q 450 703 450 754 q 440 660 450 681 q 378 599 421 615 q 332 592 353 592 q 229 632 272 592 q 156 739 185 665 q 128 722 143 735 q 106 697 117 715 l 92 667 l 88 635 q 132 568 88 601 q 183 535 163 543 l 249 507 l 296 517 l 339 521 q 394 465 376 521 q 202 396 303 465 q 101 249 101 326 q 133 194 101 219 q 169 178 151 183 l 213 172 q 365 229 296 172 q 472 382 428 281 l 521 285 q 428 161 497 211 q 283 115 364 115 q 186 126 229 115 q 50 219 90 151 q 31 283 31 250 l 33 311 l 42 339 l 57 365 l 78 393 q 207 488 115 443 q 172 500 186 494 q 69 560 115 522 m 328 665 q 393 708 367 669 q 403 739 403 724 q 397 758 403 749 l 385 774 l 364 783 l 339 788 q 185 753 257 788 q 254 665 206 689 l 283 660 l 328 665 z "},"X":{"ha":799,"x_min":4,"x_max":803,"o":"m 189 507 l 154 533 q 132 560 140 543 q 124 592 124 578 q 136 614 124 601 q 174 636 147 622 l 232 657 l 304 675 l 399 692 l 449 704 q 472 731 472 710 l 4 732 l 4 775 l 803 775 l 803 732 l 486 732 l 550 683 q 538 660 550 672 l 503 639 l 449 619 l 381 604 l 290 588 q 222 549 222 575 q 225 532 222 538 l 236 518 l 251 507 l 271 501 l 296 510 l 332 515 l 381 519 l 446 521 q 521 511 481 522 q 613 439 582 493 q 626 388 626 414 q 597 351 626 365 l 563 335 l 518 325 q 436 289 469 314 q 403 226 403 264 l 407 211 l 422 197 l 446 189 l 472 186 q 589 206 535 186 q 621 222 603 210 q 683 311 683 254 l 685 321 q 697 325 693 325 l 704 322 l 714 321 l 733 311 l 746 297 l 751 283 q 692 185 751 225 q 542 144 633 144 q 394 183 456 144 q 332 278 332 222 q 375 350 332 315 q 422 378 393 364 q 474 393 444 388 l 521 401 q 558 411 544 406 q 578 424 571 417 l 585 436 q 560 461 576 454 l 532 469 l 500 472 q 354 453 440 478 q 233 392 289 433 q 150 304 176 351 q 124 199 124 257 q 143 139 124 167 q 344 46 208 61 q 403 43 368 43 q 557 74 521 43 q 472 1 533 1 q 161 69 269 1 q 53 269 53 136 q 65 338 53 306 q 157 446 89 399 q 236 488 189 467 q 189 507 210 496 z "},"Y":{"ha":458,"x_min":-26,"x_max":476,"o":"m 133 474 q 318 600 263 524 q 343 675 343 636 q 336 706 343 693 q 294 751 325 739 q 260 758 282 756 q 149 722 193 758 q 99 626 99 681 q 142 521 99 571 l 144 515 l 146 510 l 144 503 l 132 500 l 119 501 l 107 504 q 99 507 100 506 l 58 528 q 8 593 21 556 q 0 635 3 608 q 38 735 0 693 q 147 801 76 778 q 238 815 192 815 q 321 783 283 815 q 375 704 358 750 q 386 635 386 671 q 304 476 386 547 q 211 415 261 438 q 99 382 189 406 l 67 374 q 57 368 61 372 q 97 254 57 300 q 142 217 119 228 q 196 207 165 207 q 396 351 322 207 q 428 450 414 388 l 476 326 q 410 222 458 269 q 303 157 361 175 q 218 144 263 144 q 44 220 114 144 q -26 410 -26 296 q -4 436 -26 433 q 133 474 83 454 m 476 732 l 422 732 l 401 775 l 476 775 l 476 732 z "},"Z":{"ha":507,"x_min":-137,"x_max":531,"o":"m 56 444 q 92 390 81 417 l 121 325 q 290 424 221 342 q 358 619 358 507 q 326 711 358 669 q 246 753 294 753 l 204 746 q 254 635 254 704 q 231 574 254 604 q 190 538 215 553 q 168 527 188 536 q 128 515 149 518 q 23 563 64 515 q -18 675 -18 610 q 46 776 -18 735 q 164 818 96 808 q 211 821 183 821 q 354 742 294 821 q 414 549 414 663 q 344 363 414 446 q 156 249 274 281 l 175 207 l 203 174 l 235 151 q 268 144 246 147 q 378 200 343 144 q 388 235 385 215 l 385 244 l 383 254 q 381 263 382 261 l 379 269 l 388 275 l 396 274 l 401 269 q 426 201 421 244 q 428 164 428 189 q 392 77 428 111 q 303 43 356 43 q 203 94 251 43 q 157 156 168 131 l 121 235 l 47 218 l 3 213 q -96 263 -54 213 q -137 382 -137 313 q -62 478 -137 446 q -11 488 -39 488 q 56 444 15 490 m 68 351 l 49 383 l 29 403 l 18 407 l 8 410 q -72 364 -47 410 q -81 332 -81 349 q -75 317 -81 324 l -58 307 l -33 300 l 0 299 l 40 301 l 85 311 l 68 351 m 93 579 q 114 585 106 581 l 135 593 l 156 610 l 174 626 l 188 643 l 194 658 l 197 675 q 194 694 197 688 l 186 714 q 172 728 183 721 l 156 739 q 39 657 68 715 q 31 619 29 636 l 32 603 l 40 589 l 54 581 l 71 578 l 93 579 m 531 732 l 456 732 l 428 775 l 531 775 l 531 732 z "},"[":{"ha":0,"x_min":-722,"x_max":-174,"o":"m -486 29 q -465 40 -472 35 l -451 56 l -447 74 l -372 75 l -368 63 l -367 53 q -425 -29 -367 7 q -501 -58 -461 -51 l -539 -65 q -628 -99 -579 -71 l -650 -111 l -667 -125 l -675 -137 l -679 -150 q -637 -189 -679 -171 q -585 -203 -608 -201 l -524 -207 q -418 -200 -485 -210 q -260 -139 -324 -185 q -215 -89 -235 -121 l -183 -129 l -174 -150 q -286 -243 -204 -207 q -419 -275 -333 -264 q -469 -278 -442 -278 q -647 -228 -571 -278 q -722 -108 -722 -178 q -662 -29 -722 -67 q -594 1 -628 -8 l -512 24 l -486 29 z "},"\\":{"ha":806,"x_min":-460,"x_max":-1,"o":"m -314 75 l -3 -190 l -1 -200 l -3 -210 l -10 -219 l -19 -225 l -31 -228 q -72 -207 -53 -224 l -314 -12 l -397 -74 l -460 -12 l -349 75 l -314 75 z "},"]":{"ha":0,"x_min":-639,"x_max":-142,"o":"m -565 1103 q -553 1106 -565 1103 q -500 1110 -540 1110 q -418 1072 -458 1110 l -374 1031 l -308 964 l -218 868 l -142 790 l -171 764 q -500 1026 -433 1026 q -522 1024 -515 1026 l -544 1015 l -565 1003 l -585 985 l -600 969 l -618 964 q -633 968 -626 964 l -639 982 q -636 1010 -639 1001 l -628 1035 q -614 1058 -626 1039 l -599 1082 q -565 1103 -590 1096 z "},"^":{"ha":688,"x_min":71,"x_max":638,"o":"m 151 458 q 140 463 151 458 q 108 490 129 468 q 81 542 94 510 q 71 606 71 581 q 78 632 71 619 l 99 660 l 133 689 l 179 717 l 231 740 l 285 758 l 338 769 l 390 774 q 476 703 431 776 l 447 711 l 393 707 q 336 697 376 706 q 293 681 318 693 l 238 654 q 193 626 211 642 l 171 611 q 160 599 163 603 q 139 569 146 582 l 133 542 q 161 493 133 518 l 193 478 l 229 472 q 419 529 303 472 l 476 460 q 193 328 290 407 q 139 242 139 285 q 189 176 139 200 q 243 156 214 164 l 308 150 q 388 158 336 147 q 535 226 467 175 q 594 283 569 253 l 638 214 q 507 110 583 151 q 363 74 440 74 q 167 138 249 74 q 85 297 85 203 q 153 418 85 367 q 204 444 175 435 q 151 458 172 447 z "},"_":{"ha":353,"x_min":51,"x_max":301,"o":"m 243 79 q 68 -117 179 -51 l 57 -121 l 51 -115 l 56 -103 l 68 -89 q 193 99 149 -17 q 231 333 231 196 q 193 574 231 465 q 68 771 156 683 l 56 783 l 51 796 l 56 800 l 68 801 q 242 606 178 738 q 301 340 301 483 q 243 79 301 197 z "},"`":{"ha":576,"x_min":-3,"x_max":604,"o":"m 92 368 l 92 346 q 117 243 92 283 q 147 208 131 221 q 182 199 163 201 q 381 272 300 199 q 463 444 463 344 q 418 538 463 499 q 310 578 369 578 q 243 568 271 578 q 168 535 193 550 l 164 533 l 158 536 l 154 542 l 154 549 l 163 574 l 175 626 q 182 635 178 633 l 203 643 l 231 649 l 265 653 l 310 654 q 365 642 336 656 q 413 608 394 629 q 490 488 458 575 l 515 501 l 547 507 q 572 500 561 507 l 604 479 l 604 438 q 497 410 528 438 l 499 400 l 499 386 q 426 215 499 286 q 253 144 354 144 q 96 217 163 144 q 29 396 29 290 q 60 419 36 404 l 119 450 q 92 368 106 424 m 604 732 l -3 732 l -3 775 l 604 775 l 604 732 z "},"a":{"ha":778,"x_min":3,"x_max":801,"o":"m 467 753 l 482 747 l 503 731 l 524 706 l 544 675 l 522 679 l 494 682 q 299 606 386 682 l 315 558 q 351 476 331 517 q 375 433 358 463 l 417 369 q 461 325 438 346 q 529 440 503 371 q 550 515 540 468 q 565 606 557 544 l 571 704 l 656 732 l 593 732 l 544 775 l 801 775 l 801 732 l 669 732 l 667 693 l 656 425 l 657 206 q 664 74 657 121 q 558 144 594 101 l 558 340 q 444 189 528 247 q 314 135 386 147 q 265 131 289 131 q 118 203 175 131 q 56 382 56 281 q 89 512 56 447 q 185 636 122 576 q 467 753 307 753 m 426 292 q 290 483 347 358 q 251 578 269 526 q 124 325 140 483 q 154 226 124 267 q 186 198 168 207 q 229 186 204 189 q 426 292 326 192 m 222 732 l 3 732 l 3 775 l 299 775 l 222 732 z "},"b":{"ha":722,"x_min":-7,"x_max":725,"o":"m 457 640 l 457 704 l 539 732 l -7 732 l -7 775 l 725 775 l 725 732 l 554 732 l 554 650 q 544 632 554 642 l 519 615 l 501 606 l 471 592 q 400 619 442 615 q 183 553 275 619 q 92 388 92 486 q 203 279 92 311 q 274 269 236 269 l 296 269 q 317 272 310 269 q 338 274 329 272 q 351 278 346 275 q 324 331 338 300 q 315 388 315 358 q 388 488 315 439 q 539 542 467 542 q 610 503 576 542 q 639 410 639 468 q 576 288 639 342 q 503 239 540 256 q 414 213 472 225 q 519 100 450 126 q 568 93 547 93 q 653 144 610 93 l 654 131 l 656 121 q 643 60 656 93 q 610 1 633 33 q 472 57 535 1 q 372 207 410 113 l 357 204 q 340 201 346 204 l 321 199 l 301 199 q 114 269 190 199 q 38 436 38 340 q 142 613 38 538 q 400 689 247 689 q 457 640 428 692 m 539 479 q 426 414 481 479 q 397 358 408 392 q 385 300 385 324 l 385 290 l 386 283 q 529 347 464 301 q 590 436 590 390 q 539 479 590 479 z "},"c":{"ha":826,"x_min":-21,"x_max":836,"o":"m 96 390 q 61 236 61 356 q 136 114 61 151 q 185 104 161 104 q 326 171 269 104 q 379 319 379 233 q 368 371 379 349 q 293 447 351 422 q 247 456 278 453 q 207 464 217 458 q 185 485 193 471 l 186 494 l 194 506 l 210 517 l 228 528 q 357 618 303 560 q 407 735 407 672 q 400 757 407 749 q 354 790 393 779 l 324 796 q 246 781 285 796 q 111 675 154 746 q 90 611 90 643 l 94 582 q 115 556 100 571 l 58 576 l 26 592 l 0 608 q -7 625 -4 614 q 87 767 -7 703 q 297 832 181 832 q 360 821 333 832 q 433 772 403 808 q 463 693 463 736 q 451 629 463 660 q 365 519 429 569 q 297 479 339 499 q 424 403 372 456 q 476 278 476 350 q 392 132 476 194 q 185 69 307 69 q 38 128 97 69 q -21 278 -21 188 q -11 311 -21 299 l 6 333 l 96 390 m 836 722 l 704 722 l 693 568 l 690 417 q 692 325 690 383 q 693 232 693 257 q 704 69 693 174 q 608 140 646 96 l 601 274 l 600 499 q 469 361 511 472 l 440 458 q 519 509 481 490 q 600 528 558 528 l 608 694 l 685 722 l 547 722 l 547 764 l 836 764 l 836 722 z "},"d":{"ha":833,"x_min":4,"x_max":857,"o":"m 319 697 q 294 731 311 714 l 4 732 l 4 775 l 857 775 l 857 732 l 728 732 l 717 578 l 714 126 q 719 74 714 93 q 673 102 694 82 q 622 158 651 122 l 622 165 l 624 172 l 624 217 l 622 232 l 622 246 l 617 356 l 615 425 l 615 494 q 618 525 615 507 l 622 592 q 542 538 590 563 q 442 493 508 519 l 442 326 q 384 167 442 233 q 244 101 326 101 q 103 165 161 101 q 56 237 71 201 q 42 325 42 272 q 126 439 42 376 q 224 496 169 469 q 349 549 264 515 q 346 604 349 581 q 319 697 340 654 m 554 628 q 629 675 606 656 l 629 704 l 714 732 l 413 732 q 442 611 438 678 q 442 578 442 594 l 501 601 q 554 628 521 610 m 272 181 q 338 269 315 210 q 349 339 349 303 l 349 467 q 251 422 303 450 q 126 319 157 372 q 111 269 111 293 q 134 190 111 217 q 196 158 157 163 q 272 181 243 163 z "},"e":{"ha":771,"x_min":10,"x_max":824,"o":"m 347 621 q 340 678 347 657 q 299 761 333 731 q 269 774 286 771 l 229 769 q 192 758 204 764 q 221 742 208 754 q 243 719 232 735 l 257 692 l 263 660 q 218 594 263 626 q 156 567 188 572 q 129 564 146 564 q 44 598 78 564 q 10 682 10 632 q 65 796 10 749 q 200 843 121 843 q 361 754 274 843 q 397 710 386 728 l 422 667 q 438 622 429 654 l 443 578 l 494 592 l 531 606 l 558 621 l 585 640 l 585 550 l 556 533 l 525 519 l 507 513 l 489 507 l 467 499 l 443 493 l 443 426 q 374 176 443 278 q 206 74 306 74 q 67 139 126 74 q 14 253 26 183 q 10 297 10 275 q 103 440 10 369 q 347 549 190 507 l 347 621 m 293 189 q 343 296 332 233 q 347 339 347 318 l 347 460 q 211 409 269 438 q 131 356 153 381 q 98 296 110 332 q 86 226 86 260 q 108 160 86 182 q 135 138 121 146 q 165 131 144 133 q 293 189 249 136 m 132 626 l 172 649 q 214 711 214 672 q 179 753 214 736 q 113 721 149 744 q 63 672 76 697 q 53 640 53 656 l 54 632 l 64 626 l 78 621 l 94 619 q 132 626 119 622 m 824 732 l 692 732 l 681 578 l 678 425 q 681 238 678 428 q 692 74 682 168 q 594 144 636 96 l 589 272 l 590 661 l 594 703 l 678 732 l 465 732 l 454 775 l 824 775 l 824 732 z "},"f":{"ha":319,"x_min":-6,"x_max":336,"o":"m 336 732 l 204 732 l 193 578 l 190 425 q 193 238 190 428 q 204 74 194 168 q 107 144 149 96 l 101 272 l 103 661 l 107 703 l 190 732 l -6 732 l -6 775 l 336 775 l 336 732 z "},"g":{"ha":743,"x_min":0,"x_max":747,"o":"m 368 618 q 464 639 428 639 l 506 585 l 506 614 l 507 639 l 510 664 q 513 693 510 682 l 594 722 l 0 722 l 0 764 l 747 764 l 747 722 l 617 722 l 606 568 l 603 417 q 604 325 603 383 q 606 232 606 257 q 617 69 606 174 q 519 146 567 86 l 508 319 l 506 542 l 489 556 l 471 561 l 454 558 l 429 551 l 403 544 l 383 539 l 356 528 l 321 515 l 288 503 l 264 493 q 381 429 338 475 q 424 325 424 383 q 374 214 424 264 q 250 168 318 168 q 169 183 203 168 q 58 304 93 219 q 42 389 42 343 q 82 486 42 443 q 188 556 128 535 l 368 618 m 287 264 q 306 281 287 264 q 325 347 325 299 q 297 419 325 385 q 261 449 281 439 l 215 471 q 99 333 99 410 q 157 236 99 269 q 194 229 168 232 q 287 264 249 229 z "},"h":{"ha":847,"x_min":-1,"x_max":857,"o":"m 72 564 l 90 575 l 150 596 l 206 617 q 153 536 171 588 q 136 417 136 490 q 147 326 136 365 q 233 200 174 235 q 296 182 263 182 q 447 265 403 182 q 461 319 461 290 q 427 417 461 375 q 343 458 393 458 l 332 458 l 326 457 l 317 467 l 313 481 l 296 533 q 588 651 422 621 l 629 599 l 629 688 l 711 722 l -1 722 l -1 764 l 857 764 l 857 722 l 725 722 l 714 568 l 711 417 q 713 325 711 383 q 714 232 714 257 q 725 69 714 174 q 629 140 667 96 l 622 265 l 621 499 l 629 585 l 565 572 q 504 556 536 567 q 379 499 429 529 q 506 415 450 475 q 553 292 553 361 q 505 184 553 228 q 392 129 457 140 q 351 126 375 126 q 178 186 254 126 q 68 340 101 246 q 46 471 46 401 q 49 515 46 500 l 60 556 l 72 564 z "},"i":{"ha":528,"x_min":1,"x_max":547,"o":"m 368 261 l 403 286 q 429 318 419 297 l 178 621 l 164 581 l 157 538 l 153 490 l 151 436 q 187 300 150 360 q 276 242 224 240 q 303 244 286 243 q 368 261 343 247 m 1 732 l 1 775 l 547 775 l 547 732 l 151 732 l 214 704 l 200 669 l 457 369 l 465 382 l 481 413 l 486 425 l 547 333 q 388 182 500 222 q 318 172 349 172 q 144 278 222 172 q 67 507 67 383 q 108 731 67 681 l 1 732 z "},"j":{"ha":799,"x_min":8,"x_max":806,"o":"m 472 739 l 488 733 q 506 717 494 729 l 525 689 l 549 654 l 522 658 l 478 660 q 393 643 439 661 q 325 611 343 625 q 244 542 290 593 l 218 513 l 194 485 l 174 456 l 158 426 l 136 368 q 129 311 129 336 q 161 222 129 261 q 197 197 176 207 q 240 186 218 186 q 458 307 363 186 q 556 517 526 392 q 569 606 567 564 l 578 704 l 660 732 l 597 732 l 549 775 l 806 775 l 806 732 l 674 732 l 671 693 l 660 425 l 660 292 l 663 126 l 668 74 q 564 144 597 101 l 564 319 q 444 183 521 231 q 268 131 361 131 q 122 203 179 131 q 60 382 60 281 q 189 626 60 514 q 472 739 318 739 m 213 732 l 8 732 l 8 775 l 289 775 l 213 732 z "},"k":{"ha":729,"x_min":-3,"x_max":735,"o":"m -3 732 l -3 775 l 735 775 l 735 732 l 600 732 l 599 696 l 597 615 q 596 565 597 603 q 594 517 594 535 l 596 133 l 600 74 q 494 144 531 100 l 494 313 q 408 221 460 254 q 285 186 353 186 q 128 277 196 186 q 61 507 61 368 q 118 731 61 638 l -3 732 m 406 333 q 436 368 406 333 q 494 535 467 404 l 494 704 l 586 732 l 146 732 l 222 704 l 189 650 l 165 581 l 150 494 l 146 396 q 167 314 144 358 l 179 297 q 215 265 194 278 q 257 256 232 258 q 406 333 344 261 z "},"l":{"ha":306,"x_min":-15,"x_max":760,"o":"m 151 775 q 81 818 108 785 q 60 850 74 826 l 54 886 q 150 1032 54 954 q 335 1110 246 1110 q 590 1021 472 1110 q 760 788 699 939 l 732 789 q 572 972 681 903 q 457 1022 521 1004 q 335 1039 393 1039 q 200 976 256 1039 q 150 919 171 956 q 132 858 132 890 q 178 783 132 810 l 208 774 l 325 775 l 325 732 l 194 732 l 182 581 l 179 425 q 182 235 179 424 q 194 74 183 183 q 97 144 147 89 l 90 279 l 90 614 q 97 703 90 663 l 174 732 l -15 732 l -15 775 l 151 775 z "},"m":{"ha":569,"x_min":15,"x_max":563,"o":"m 154 732 l 43 732 l 15 775 l 563 775 l 563 732 l 154 732 m 136 421 m 140 326 q 214 440 167 381 q 353 521 278 521 q 445 461 406 521 q 485 311 485 401 q 415 163 485 238 q 347 106 381 125 q 282 88 306 86 q 211 144 239 89 q 353 222 288 144 q 403 303 382 258 q 421 382 421 343 q 379 453 421 436 l 353 458 q 316 453 335 458 q 282 433 297 447 l 246 403 l 211 361 l 181 313 l 158 263 l 144 211 l 140 164 l 140 135 q 143 111 140 119 l 147 90 q 154 74 149 81 l 140 326 z "},"n":{"ha":882,"x_min":11,"x_max":875,"o":"m 356 638 q 371 632 356 638 q 415 594 386 625 q 471 457 471 538 l 525 496 l 574 525 l 613 544 l 644 556 l 646 636 q 646 663 646 636 q 651 693 646 672 l 733 722 l 11 722 l 11 764 l 875 764 l 875 722 l 747 722 l 736 568 l 733 417 l 735 200 q 742 69 735 117 q 688 97 725 76 q 644 140 664 115 l 642 381 q 639 404 639 396 l 638 471 q 485 361 556 444 l 444 394 l 431 410 l 433 436 q 399 528 433 486 q 318 569 365 569 q 185 493 240 569 q 131 306 131 417 q 143 239 131 268 q 231 153 169 178 q 290 140 258 140 q 422 229 368 140 q 449 167 440 201 q 450 140 450 157 q 440 115 450 128 q 408 93 429 103 q 371 75 394 82 l 333 69 q 142 161 214 69 q 69 403 69 253 q 134 576 69 503 q 290 651 199 650 q 356 638 326 651 z "},"o":{"ha":764,"x_min":4,"x_max":763,"o":"m 126 504 l 151 500 l 175 494 l 194 493 q 317 528 258 489 q 367 611 367 561 q 324 697 367 663 q 228 731 281 731 l 4 732 l 4 775 l 763 775 l 763 732 l 633 732 l 622 578 l 619 425 l 619 292 l 622 126 l 628 74 l 604 85 l 579 101 l 553 121 l 528 144 l 528 293 q 429 183 499 229 q 299 144 371 144 q 114 225 181 144 q 47 444 47 306 l 51 468 q 85 501 63 496 l 108 507 l 126 504 m 431 292 q 528 440 503 350 l 529 514 q 529 553 529 514 q 531 574 529 558 q 532 597 532 589 l 536 703 l 619 732 l 381 732 q 410 592 410 697 q 357 462 410 514 q 228 410 304 410 l 203 410 l 129 417 q 114 411 122 417 l 100 401 l 92 386 l 89 368 q 124 290 89 326 q 197 244 154 257 q 263 235 235 233 q 431 292 365 239 z "},"p":{"ha":681,"x_min":0,"x_max":710,"o":"m 115 410 q 183 197 115 279 q 353 108 256 108 q 479 164 432 108 q 533 306 533 226 q 496 386 533 350 q 417 432 463 418 q 325 444 367 444 l 303 483 l 296 507 l 297 511 l 307 514 l 313 515 l 319 518 l 325 518 l 331 521 q 485 587 422 544 q 549 668 549 629 q 519 715 549 692 l 490 732 q 464 739 483 736 l 433 736 q 400 729 414 735 l 367 717 q 335 703 354 714 l 319 694 l 307 686 l 294 676 l 286 668 l 272 650 l 268 635 l 256 656 l 246 675 l 240 690 l 239 703 l 244 718 l 254 731 l 0 732 l 0 775 l 710 775 l 710 732 l 533 732 q 561 710 549 724 l 585 683 l 599 651 l 604 619 q 586 569 604 599 q 582 563 583 564 q 499 496 560 533 q 429 465 474 481 q 563 396 507 449 q 618 269 618 343 q 542 132 618 192 q 407 78 489 90 q 353 74 379 74 q 165 150 242 74 q 67 331 99 217 q 44 507 44 410 q 51 518 49 515 l 74 526 l 107 532 l 149 535 q 115 410 115 510 z "},"q":{"ha":778,"x_min":-1,"x_max":785,"o":"m 351 646 q 443 515 426 608 q 446 479 446 500 q 431 367 446 406 q 389 297 418 322 l 421 315 q 451 335 432 322 l 485 353 l 508 360 l 544 307 q 547 528 544 286 q 558 703 549 603 l 635 732 l -1 732 l -1 775 l 785 775 l 785 732 l 649 732 l 644 524 q 642 496 642 504 l 642 425 q 643 303 642 378 l 644 201 q 656 74 644 135 q 550 144 586 100 l 547 206 q 544 243 547 219 l 544 283 q 174 74 283 165 q 165 76 167 75 l 158 81 l 135 124 l 117 158 l 264 243 q 373 347 335 283 q 411 488 411 410 q 358 582 411 549 q 321 592 340 592 q 108 492 201 592 q 54 417 81 461 q 34 458 42 432 q 26 515 26 483 q 138 621 60 576 q 293 660 197 654 q 351 646 326 661 z "},"r":{"ha":806,"x_min":-1,"x_max":806,"o":"m 249 596 q 486 635 351 608 l 492 632 l 499 622 l 506 608 l 513 592 l 526 550 q 363 499 443 550 q 246 371 282 447 q 221 269 221 321 q 224 243 221 253 l 236 219 l 253 204 l 275 199 q 463 289 381 199 q 569 521 539 372 l 569 578 l 571 621 l 574 660 l 578 703 l 654 732 l -1 732 l -1 775 l 806 775 l 806 732 l 674 732 l 663 578 l 660 425 q 663 238 660 428 q 674 74 664 168 q 578 144 618 94 l 569 313 q 482 192 546 239 q 383 147 436 157 q 346 144 368 144 q 153 256 206 144 q 136 325 136 289 q 183 449 136 389 q 289 535 225 500 l 289 543 q 39 493 157 493 q 22 542 28 515 l 17 606 q 57 589 35 594 l 107 583 q 183 588 139 585 q 249 596 208 590 z "},"s":{"ha":1097,"x_min":-10,"x_max":1118,"o":"m 250 707 q 275 721 260 713 q 458 774 376 774 q 480 769 469 774 q 503 750 490 764 l 515 738 l 528 724 l 539 707 l 551 689 l 517 699 l 486 703 q 227 594 344 703 q 110 354 110 485 q 139 254 110 294 q 171 222 153 235 q 208 213 186 215 q 276 224 240 213 q 403 299 338 242 q 468 368 435 328 q 599 675 599 526 l 599 704 l 690 732 l 599 732 l 571 775 l 1118 775 l 1118 732 l 710 732 l 700 617 l 694 515 q 692 421 693 481 l 690 325 l 696 326 q 769 440 722 381 q 908 521 833 521 q 1001 461 961 521 q 1040 311 1040 401 q 971 163 1040 238 q 903 106 936 125 q 838 88 861 86 q 767 144 794 89 q 908 222 843 144 q 958 303 938 258 q 976 382 976 343 q 935 453 976 436 l 908 458 q 872 453 890 458 q 838 433 853 447 l 801 403 l 767 361 l 736 313 l 714 263 l 700 211 l 696 164 l 696 135 q 699 111 696 119 l 703 90 q 710 74 704 81 l 663 92 l 628 114 l 606 136 l 599 158 l 599 451 q 443 226 529 306 q 263 144 353 144 q 106 226 172 144 q 39 425 39 307 q 60 510 39 468 q 122 600 81 553 q 250 707 179 664 m 181 732 l -10 732 l -10 775 l 257 775 l 181 732 z "},"t":{"ha":750,"x_min":0,"x_max":757,"o":"m 456 665 l 519 613 l 519 633 l 522 657 l 524 675 l 525 686 l 615 722 l 0 722 l 0 764 l 757 764 l 757 722 l 629 722 l 614 526 l 608 417 q 608 325 607 382 q 611 232 611 251 q 622 69 611 174 q 519 146 560 99 l 514 190 l 511 318 l 513 510 q 515 546 514 536 l 519 589 l 492 599 q 293 540 394 599 q 169 443 229 503 q 104 343 121 394 q 96 292 96 317 q 129 183 96 229 q 167 152 143 164 q 214 140 192 140 q 324 182 254 140 q 335 181 332 182 l 351 168 l 374 140 l 381 121 l 383 101 l 382 94 l 379 90 l 339 75 l 289 69 q 149 122 211 69 q 65 249 93 171 q 49 361 49 296 q 83 461 49 410 q 183 563 118 513 q 456 665 318 665 z "},"u":{"ha":854,"x_min":13,"x_max":860,"o":"m 363 533 l 390 489 l 404 457 q 307 485 367 485 q 180 438 233 485 q 126 319 126 392 q 153 243 126 278 q 222 208 179 208 q 400 297 328 208 q 472 513 472 386 q 444 609 472 564 q 369 674 415 654 q 307 686 339 686 q 225 675 261 686 q 192 658 204 668 l 168 639 q 208 740 168 697 q 307 782 247 782 q 461 681 394 782 q 528 429 528 579 q 508 317 528 368 q 365 161 465 204 q 264 140 318 140 q 118 214 179 140 q 57 389 57 288 q 211 561 57 514 q 307 575 258 575 q 363 533 326 578 m 569 722 l 569 764 l 860 764 l 860 722 l 729 722 l 718 568 l 715 417 q 717 325 715 383 q 718 232 718 257 q 729 69 718 174 q 675 97 713 76 q 632 140 651 115 l 628 189 l 625 369 l 625 582 q 626 599 625 588 q 628 618 628 611 l 632 693 l 707 722 l 569 722 m 104 722 l 13 722 l 13 764 l 140 764 l 104 722 z "},"v":{"ha":1049,"x_min":-7,"x_max":1104,"o":"m 158 333 l 186 342 l 218 353 l 254 368 q 226 457 244 424 q 178 493 207 490 l 163 490 l 147 482 l 132 469 l 118 454 q 86 382 92 425 l 89 363 l 101 347 q 117 335 110 338 l 136 332 l 158 333 m 79 732 l -7 732 l -7 775 l 122 775 l 79 732 m 774 675 q 835 636 800 675 q 864 568 858 608 l 838 585 l 814 592 q 721 572 765 592 q 613 478 651 542 q 575 339 575 415 l 579 301 q 617 250 589 264 q 646 242 628 244 q 769 302 713 242 q 869 481 825 363 l 865 431 q 863 392 865 415 l 861 364 l 861 347 q 688 193 786 193 q 569 252 617 193 q 521 396 521 311 q 604 581 521 486 q 774 675 688 675 m 296 218 l 283 257 l 275 297 l 256 290 l 238 286 l 218 283 l 199 283 q 132 296 163 283 q 42 378 64 321 q 31 436 31 406 q 67 526 31 496 q 156 564 99 564 q 231 516 197 564 q 274 426 264 468 q 283 382 276 414 q 417 463 363 410 q 471 569 471 515 q 460 624 471 601 q 379 700 439 676 q 318 711 350 711 l 293 711 q 168 678 246 711 q 143 661 157 672 q 100 626 119 646 q 171 750 111 699 q 311 801 231 801 q 392 786 357 801 q 506 676 471 760 q 521 597 521 640 q 508 511 521 550 q 393 358 475 418 q 303 311 354 329 q 381 154 321 215 l 475 92 l 507 82 l 542 75 l 575 74 q 692 92 633 71 q 790 157 757 114 q 821 213 810 181 l 842 179 q 753 51 826 104 q 635 4 701 14 q 589 1 615 1 l 557 1 q 533 7 551 3 q 418 58 482 19 l 313 182 l 296 218 m 560 775 l 1104 775 l 1104 732 l 972 732 l 961 578 l 958 425 q 961 238 958 428 q 972 74 963 168 q 875 144 917 96 l 869 272 l 871 661 l 875 703 l 958 732 l 593 732 l 560 775 z "},"w":{"ha":806,"x_min":-3,"x_max":792,"o":"m 50 447 q -3 536 -3 492 q 78 672 -3 614 q 278 731 160 731 q 336 718 306 731 q 417 642 386 699 q 431 590 431 615 q 419 546 431 569 q 383 503 408 522 q 311 479 354 479 q 208 519 250 479 q 136 626 160 557 q 108 610 124 622 q 86 585 97 603 l 72 554 l 68 522 q 111 456 68 485 l 161 422 l 229 394 l 276 404 l 319 408 l 333 404 l 350 393 l 363 375 l 374 353 q 180 283 278 353 q 82 136 82 213 q 113 83 82 107 q 149 65 129 71 l 193 60 q 344 117 275 60 q 426 215 361 129 q 503 317 483 290 q 564 417 525 350 l 557 217 q 514 158 553 200 q 465 104 490 132 q 331 11 410 35 q 264 3 301 3 q 165 14 206 3 q 29 106 68 42 q 11 171 11 138 l 14 199 l 22 226 l 38 253 l 58 281 q 188 375 96 332 q 151 388 167 382 q 50 447 94 410 m 308 553 q 372 597 349 558 q 382 626 382 611 q 376 646 382 636 l 364 661 l 343 671 l 319 675 q 164 640 236 675 l 182 601 q 233 553 201 571 l 264 547 l 308 553 m 792 676 l 660 676 l 649 522 l 646 369 q 649 182 646 372 q 660 18 650 113 q 563 89 604 40 l 557 217 l 558 606 l 563 647 l 646 676 l 450 676 l 450 719 l 792 719 l 792 676 z "},"x":{"ha":743,"x_min":4,"x_max":746,"o":"m 154 506 q 139 518 144 513 q 113 550 124 533 q 103 583 103 567 q 164 633 103 608 l 236 654 l 332 675 q 446 703 369 682 q 486 731 482 717 l 4 732 l 4 775 l 746 775 l 746 732 l 514 732 l 585 690 q 574 668 585 679 l 542 650 l 490 633 l 424 619 q 365 611 396 615 q 331 600 361 610 q 224 561 251 585 q 207 535 210 550 l 207 529 l 211 524 l 218 517 l 228 511 l 254 500 l 290 493 q 439 521 364 518 q 472 521 460 521 q 553 506 518 521 q 668 399 631 479 q 683 325 683 364 l 678 303 q 640 253 672 278 l 613 231 l 581 213 l 544 197 l 507 189 l 472 186 q 381 225 439 183 l 357 242 l 338 263 l 321 285 l 313 306 l 315 306 l 328 297 l 340 292 q 383 271 357 279 q 438 263 408 263 q 547 303 504 263 q 590 396 590 343 q 563 440 590 422 q 528 453 546 450 l 486 458 q 299 419 381 458 q 178 311 217 381 q 151 213 151 265 q 225 99 151 146 q 403 51 299 51 q 604 101 521 51 l 599 53 q 403 1 510 1 q 268 21 331 1 q 118 111 178 49 q 53 269 53 182 q 103 378 53 321 q 236 472 149 429 q 154 506 174 486 z "},"y":{"ha":761,"x_min":-22,"x_max":739,"o":"m 138 453 q 322 579 267 503 q 347 654 347 615 q 340 685 347 672 q 299 731 329 718 q 264 738 286 735 q 153 701 197 738 q 103 606 103 660 q 146 500 103 550 l 149 494 l 150 489 l 149 482 l 136 479 l 124 481 l 111 483 q 103 486 104 485 l 63 507 q 13 572 25 535 q 4 614 7 588 q 42 715 4 672 q 151 781 81 757 q 242 794 196 794 q 294 783 271 794 q 358 743 318 771 q 371 715 368 733 q 379 683 378 686 q 390 614 390 650 q 308 456 390 526 q 215 394 265 417 q 103 361 193 385 l 71 353 q 61 347 65 351 q 101 233 61 279 q 147 197 124 207 q 200 186 169 186 q 400 331 326 186 q 432 429 418 367 l 481 306 q 414 201 463 249 q 307 136 365 154 q 222 124 267 124 q 48 199 118 124 q -22 389 -22 275 q 0 415 -22 413 q 138 453 88 433 m 739 732 l 607 732 l 596 578 l 593 425 q 596 238 593 428 q 607 74 597 168 q 510 144 551 96 l 504 272 l 506 661 l 510 703 l 593 732 l 397 732 l 397 775 l 739 775 l 739 732 z "},"z":{"ha":800,"x_min":-57,"x_max":725,"o":"m 85 444 q 111 392 103 418 l 133 328 q 258 424 207 343 q 308 617 308 506 q 283 710 308 671 q 225 749 258 749 l 194 742 q 232 632 232 700 q 214 571 232 601 q 185 536 203 551 q 168 526 182 535 q 139 514 154 517 q 39 610 67 514 q 31 672 31 639 q 72 765 31 726 q 165 813 110 801 q 200 815 179 815 q 306 738 261 815 q 350 547 350 660 q 298 365 350 446 q 158 251 246 283 l 174 211 l 193 178 l 217 157 q 242 150 225 153 q 324 204 297 150 q 331 239 328 219 l 328 249 l 326 257 q 325 265 326 264 l 324 272 l 331 278 l 336 276 l 340 272 q 358 206 356 247 q 360 168 360 193 q 336 89 360 124 q 268 50 311 50 q 193 100 229 50 q 160 161 168 136 l 133 239 l 79 222 l 46 217 q -26 266 4 217 q -57 383 -57 315 q -1 478 -57 446 q 36 488 15 488 q 85 444 56 490 m 94 353 l 81 385 l 65 404 l 57 408 l 50 411 q 3 388 21 411 q -15 335 -15 364 q -11 319 -15 326 l 1 310 l 19 303 l 44 301 l 74 304 l 107 314 l 94 353 m 113 578 q 128 583 122 578 l 143 592 l 158 607 l 172 624 l 182 640 l 188 656 l 190 672 q 188 690 190 685 l 182 710 q 171 724 179 717 l 158 735 q 72 653 94 711 q 67 617 65 633 l 68 600 l 74 588 l 83 579 l 96 576 l 113 578 m 461 732 l 386 732 l 358 775 l 461 775 l 461 732 m 725 732 l 593 732 l 582 578 l 579 425 q 582 238 579 428 q 593 74 583 168 q 496 144 538 96 l 490 272 l 492 661 l 496 703 l 579 732 l 383 732 l 383 775 l 725 775 l 725 732 z "},"{":{"ha":0,"x_min":-365,"x_max":-33,"o":"m -92 1103 q -42 1053 -57 1092 q -33 1011 -36 1038 q -128 1039 -74 1042 l -153 1038 q -179 1029 -167 1036 q -204 1014 -196 1024 l -232 994 q -287 906 -281 960 q -204 774 -287 807 l -262 775 q -337 831 -310 789 q -365 921 -365 874 q -321 1032 -365 982 q -218 1096 -279 1076 q -128 1110 -181 1108 q -92 1103 -108 1110 z "},"|":{"ha":0,"x_min":-765,"x_max":-207,"o":"m -207 119 q -524 35 -378 88 q -742 -76 -671 -18 l -754 -58 l -761 -42 l -764 -26 l -765 -12 q -554 89 -682 42 q -390 139 -458 124 l -207 179 l -207 119 z "},"}":{"ha":0,"x_min":-647,"x_max":-18,"o":"m -582 1106 q -537 1110 -565 1110 q -501 1100 -519 1110 q -458 1064 -475 1085 l -414 1011 l -369 942 q -276 832 -325 872 q -147 763 -228 792 l -233 764 q -279 788 -257 772 q -362 858 -326 815 l -399 901 q -474 976 -429 949 l -515 997 q -557 1004 -529 1001 q -601 994 -578 1004 q -640 969 -618 988 l -646 969 l -647 978 l -642 1010 q -628 1049 -637 1029 q -606 1096 -617 1081 l -582 1106 m -236 1094 q -208 1053 -225 1082 l -185 1011 l -162 969 l -117 893 l -79 838 l -46 800 q -18 782 -32 788 l -60 764 q -139 846 -103 801 q -190 936 -167 881 l -206 972 q -250 1018 -218 1003 q -279 1026 -261 1024 q -357 969 -312 1026 l -364 983 l -368 1006 l -369 1026 q -353 1085 -372 1071 q -260 1110 -317 1110 q -236 1094 -253 1113 z "},"~":{"ha":576,"x_min":-3,"x_max":604,"o":"m 92 368 l 92 346 q 117 243 92 283 q 147 208 131 221 q 182 199 163 201 q 381 272 300 199 q 463 444 463 344 q 418 538 463 499 q 310 578 369 578 q 243 568 271 578 q 168 535 193 550 l 164 533 l 158 536 l 154 542 l 154 549 l 163 574 l 175 626 q 182 635 178 633 l 203 643 l 231 649 l 265 653 l 310 654 q 365 642 336 656 q 413 608 394 629 q 490 488 458 575 l 515 501 l 547 507 q 572 500 561 507 l 604 479 l 604 438 q 497 410 528 438 l 499 400 l 499 386 q 426 215 499 286 q 253 144 354 144 q 96 217 163 144 q 29 396 29 290 q 60 419 36 404 l 119 450 q 92 368 106 424 m 604 732 l -3 732 l -3 775 l 604 775 l 604 732 z "},"":{"ha":674,"x_min":1,"x_max":660,"o":"m 650 599 q 364 564 592 564 q 525 429 481 529 q 538 374 538 401 q 483 271 538 319 q 335 186 419 215 q 383 135 353 154 q 446 115 414 115 q 514 136 485 115 q 538 163 529 147 q 544 193 542 172 l 542 204 l 542 214 l 539 221 l 538 226 q 564 167 558 213 q 565 131 565 156 q 533 64 565 90 q 460 38 500 38 q 379 74 415 38 q 338 117 350 96 l 301 172 q 160 144 236 144 q 114 155 132 144 q 71 193 96 165 q 45 244 56 214 q 35 311 35 275 q 76 385 35 357 q 160 410 113 410 q 219 367 185 413 l 236 344 l 254 318 l 271 288 l 288 256 q 361 288 331 271 q 454 367 424 321 q 468 410 468 389 q 397 510 468 463 q 317 550 363 532 q 217 578 278 565 l 194 621 l 188 649 l 189 657 l 192 664 l 196 668 l 203 668 q 426 640 286 640 l 465 640 q 656 668 597 640 l 650 599 m 1 732 l 1 775 l 660 775 l 660 732 l 1 732 m 204 232 q 258 249 229 235 l 233 283 l 211 310 l 188 326 l 168 332 q 136 326 151 332 l 111 314 q 94 294 100 304 l 89 269 l 93 253 l 106 239 l 121 229 l 140 226 l 204 232 z "},"":{"ha":903,"x_min":-32,"x_max":914,"o":"m 122 335 l 143 346 q 156 361 153 353 l 161 382 l 157 392 q 147 396 150 396 l 128 392 l 108 382 q 90 367 96 376 l 76 346 l 92 335 l 99 332 l 122 335 m 592 676 l 607 661 l 622 642 l 638 626 l 638 704 l 719 732 l -32 732 l -32 775 l 914 775 l 914 732 l 733 732 l 733 650 l 732 640 q 726 633 729 635 l 717 625 l 703 617 l 672 601 l 651 592 q 581 606 633 606 q 478 590 535 606 q 333 518 404 571 q 300 489 314 503 l 279 458 q 272 431 275 449 q 328 368 272 394 q 418 340 371 346 q 456 339 436 338 l 490 340 l 529 340 q 553 346 543 340 l 551 356 l 551 368 q 664 510 551 469 q 733 521 697 521 q 803 494 772 521 q 833 425 828 472 q 775 328 833 372 q 703 286 742 303 q 615 263 679 276 q 678 146 639 192 q 712 113 696 122 q 749 101 728 104 q 847 144 811 101 l 851 119 l 854 97 q 849 60 854 74 l 836 29 q 790 1 821 6 q 660 75 715 1 q 610 160 626 119 q 581 263 593 200 q 547 169 574 219 q 315 29 474 29 q 200 63 253 29 q 164 100 181 78 q 153 144 153 122 q 218 213 153 188 l 161 214 q 42 247 85 215 q -7 332 -7 281 q 38 396 -7 369 q 125 425 83 422 q 147 425 139 425 q 168 418 160 425 l 188 407 q 200 392 197 400 l 204 374 q 176 329 204 347 l 146 315 l 111 311 l 81 317 q 63 325 68 319 l 67 293 q 121 247 81 265 l 161 242 l 196 242 q 226 244 217 242 l 254 249 l 281 256 l 293 254 l 306 251 l 317 247 l 329 242 l 340 231 l 350 224 l 354 218 l 357 213 q 350 201 353 204 l 338 199 q 221 135 256 199 q 210 93 210 114 q 224 80 211 86 q 258 74 236 74 q 446 128 368 74 q 526 226 500 165 q 539 269 533 243 q 311 328 403 269 q 240 395 261 360 q 218 479 218 431 q 321 621 218 563 q 581 682 431 682 q 592 676 589 679 m 801 447 q 793 457 796 454 l 779 463 l 763 465 q 701 456 732 465 q 647 431 678 447 l 625 411 l 608 392 l 597 372 l 594 354 l 635 360 q 747 389 690 365 q 782 406 774 400 q 804 436 801 418 l 801 447 z "},"":{"ha":507,"x_min":6,"x_max":532,"o":"m 69 535 q 56 578 56 557 q 89 663 56 621 l 128 699 l 181 731 l 6 732 l 6 775 l 532 775 l 532 732 l 342 732 l 364 704 q 158 599 213 678 q 140 549 140 574 q 172 506 140 526 l 208 492 l 251 488 q 350 521 286 488 l 404 451 l 349 425 q 247 358 300 400 q 221 333 238 350 q 154 221 154 272 q 178 176 154 193 l 204 163 l 238 158 q 311 174 276 158 q 464 294 394 211 q 532 396 497 336 l 532 257 q 424 143 490 185 q 353 111 393 124 q 279 101 307 101 q 106 214 153 101 q 90 283 90 247 q 133 363 90 317 q 185 407 160 392 l 251 450 q 151 474 204 451 q 69 535 92 499 z "},"":{"ha":340,"x_min":107,"x_max":221,"o":"m 108 619 l 115 718 l 118 776 l 119 829 l 125 839 l 133 843 l 144 838 l 160 828 l 174 814 l 190 801 q 213 777 204 789 q 218 753 221 765 l 214 699 l 214 672 q 213 642 214 663 l 211 619 l 211 604 q 208 578 211 594 l 208 546 q 206 522 208 531 l 204 507 l 204 271 q 203 258 207 263 l 190 256 q 168 258 176 256 l 147 269 q 107 325 113 288 l 108 619 m 108 172 q 119 178 115 178 l 126 176 l 136 174 l 156 164 l 169 158 q 204 88 204 144 l 204 44 q 203 32 207 36 l 190 29 l 182 32 l 168 40 l 160 44 l 151 50 l 142 53 l 133 57 q 113 74 122 63 l 107 101 l 107 160 l 108 172 z "},"":{"ha":375,"x_min":-7,"x_max":424,"o":"m 424 621 l -7 621 l -7 701 l 424 701 l 424 621 m 424 301 q 354 297 390 297 l 304 297 q 249 303 268 297 q 158 332 215 313 q 90 376 126 346 q 58 407 78 386 l 58 449 q 131 415 97 426 q 272 390 201 390 q 368 399 308 390 q 424 407 382 400 l 424 301 z "},"":{"ha":743,"x_min":-1,"x_max":753,"o":"m 435 307 l 444 297 l 456 288 l 468 274 l 483 256 l 483 361 l 406 349 l 329 346 q 131 397 221 342 q 49 521 49 447 q 150 639 49 589 q 397 689 251 689 q 483 635 443 689 l 483 704 l 567 732 l -1 732 l -1 775 l 753 775 l 753 732 l 581 732 l 581 621 q 497 564 567 590 q 474 597 483 588 q 440 619 457 617 q 197 585 300 619 q 122 544 146 567 q 97 493 97 522 q 146 435 97 457 q 204 415 171 422 l 274 410 l 289 410 q 489 440 400 410 q 596 521 578 471 q 615 535 601 535 q 633 528 626 535 l 654 508 l 671 485 q 678 465 674 481 q 672 444 681 456 l 646 418 l 629 403 l 614 393 l 597 386 l 581 382 l 581 271 q 571 250 578 258 l 556 231 l 533 211 l 504 193 q 397 256 479 256 q 201 218 279 256 q 119 122 119 179 q 172 72 119 94 l 231 57 l 301 51 q 410 65 340 49 q 515 104 471 79 l 560 129 q 617 182 600 151 q 624 207 621 189 q 686 122 686 158 q 678 101 686 114 l 654 81 l 618 60 l 571 42 q 343 1 465 1 q 225 14 282 1 q 83 97 131 35 q 64 158 64 124 q 161 267 64 222 q 326 308 236 300 q 397 311 357 311 l 435 307 z "},"":{"ha":875,"x_min":10,"x_max":872,"o":"m 76 531 l 99 543 l 142 564 l 176 583 q 150 500 156 563 q 149 450 149 485 q 208 229 149 314 q 372 144 268 144 q 601 203 508 144 q 694 354 694 263 q 669 408 694 386 q 642 425 656 419 l 610 431 q 457 382 526 431 q 328 432 382 382 q 288 488 307 450 q 275 556 275 519 q 326 618 275 589 q 382 642 358 636 l 457 660 q 529 679 479 665 q 579 700 560 689 q 599 724 599 711 q 596 731 599 728 l 10 732 l 10 775 l 872 775 l 872 732 l 618 732 l 681 676 q 637 624 681 649 q 528 592 593 600 l 488 583 q 453 572 471 579 q 396 550 414 561 l 374 538 l 358 526 l 349 514 l 346 501 q 386 425 346 456 q 583 507 471 507 q 692 446 646 507 q 735 342 726 400 q 738 297 738 322 q 656 141 738 208 q 457 74 574 74 q 294 101 374 74 q 85 307 140 156 q 57 465 57 379 l 57 479 q 60 494 57 489 l 60 500 l 61 508 l 63 514 l 65 521 l 76 531 m 786 601 l 804 589 q 817 569 814 581 l 821 549 l 817 528 l 806 510 l 788 497 q 765 493 779 493 l 743 497 l 725 510 l 713 528 l 708 549 l 713 569 l 725 589 l 743 601 q 765 606 751 606 q 786 601 776 608 z "},"":{"ha":0,"x_min":-339,"x_max":172,"o":"m -74 75 l 172 -122 l 132 -150 l -82 17 l -276 -165 l -339 -117 l -129 75 l -74 75 z "},"":{"ha":0,"x_min":-681,"x_max":-51,"o":"m -597 -46 q -542 -178 -597 -121 q -408 -236 -487 -236 q -257 -208 -331 -236 q -135 -118 -174 -175 q -114 -46 -114 -87 q -117 -22 -114 -31 l -128 -1 l -144 10 l -164 15 q -215 6 -196 15 l -240 -7 l -265 -28 q -318 -117 -318 -72 l -311 -136 q -304 -150 -307 -147 q -333 -129 -324 -140 l -356 -104 q -368 -75 -365 -90 l -374 -46 q -311 33 -374 -10 l -281 50 l -251 63 l -222 71 l -193 74 q -93 28 -131 74 q -62 -22 -74 8 q -51 -81 -51 -53 q -134 -219 -51 -160 q -346 -278 -217 -278 q -474 -262 -414 -278 q -654 -153 -600 -231 q -681 -74 -681 -115 q -646 -4 -681 -39 q -585 22 -619 15 q -561 24 -578 24 q -597 -46 -592 3 z "},"":{"ha":715,"x_min":11,"x_max":713,"o":"m 219 549 q 299 442 265 524 q 321 360 313 407 q 394 396 357 372 q 492 503 465 440 q 503 564 503 532 q 452 680 503 629 q 329 731 401 731 q 240 714 293 731 q 146 668 203 701 q 215 775 164 735 q 335 815 267 815 q 418 806 386 815 q 468 774 450 796 l 713 775 l 713 732 l 496 732 q 518 704 511 718 l 538 665 l 549 617 l 553 564 q 538 476 556 528 q 428 329 506 386 q 342 283 392 303 q 413 157 374 193 q 454 119 429 135 q 496 108 472 111 q 563 133 535 108 q 586 164 578 147 q 593 199 590 175 l 592 222 l 588 242 l 592 247 l 610 239 l 621 226 l 628 214 l 632 196 l 633 172 l 635 144 q 603 44 638 89 q 562 13 586 24 q 517 1 538 1 q 415 72 467 1 q 315 269 356 154 l 294 263 l 272 258 q 246 256 256 258 l 217 256 q 95 308 142 256 q 49 436 49 361 q 85 526 49 496 q 174 564 115 563 q 219 549 197 565 m 247 338 q 293 354 267 340 q 278 397 289 382 q 224 456 265 433 q 188 465 206 465 q 168 460 179 465 l 150 446 l 136 429 q 132 410 132 421 l 136 379 q 169 338 144 351 l 196 332 l 247 338 m 103 732 l 11 732 l 11 775 l 139 775 l 103 732 z "},"":{"ha":628,"x_min":-7,"x_max":636,"o":"m 592 457 l 533 408 l 479 458 l 533 506 l 592 457 m 636 621 l 469 621 l 469 500 l 285 500 q 218 469 218 500 q 219 458 218 465 q 256 440 222 443 q 286 442 269 439 q 336 449 329 449 q 436 424 396 449 q 497 340 488 392 q 499 315 499 333 q 472 242 499 271 q 368 197 432 197 q 254 226 314 197 q 192 268 222 242 q 104 368 161 294 q 74 411 82 394 l 104 435 q 188 333 121 389 q 286 282 247 282 l 313 282 q 381 296 357 282 q 411 315 404 310 q 428 346 428 329 q 410 383 428 375 q 383 383 399 389 q 354 372 368 378 q 294 360 326 365 q 229 386 249 360 l 157 485 q 142 528 142 506 q 190 578 142 564 q 222 581 200 581 l 375 581 l 375 621 l -7 621 l -7 701 l 636 701 l 636 621 m 390 206 l 390 128 q 453 143 431 143 q 543 83 517 143 q 554 35 554 58 q 500 -61 554 -19 q 463 -78 485 -72 l 436 -24 q 489 -1 456 -24 q 518 51 518 18 q 471 88 518 88 l 453 88 q 390 35 428 88 l 390 -176 l 325 -117 l 325 -36 q 244 -64 288 -64 q 166 -33 199 -64 q 133 43 133 -3 q 211 154 133 133 q 240 158 226 158 q 338 101 307 158 l 339 76 q 268 103 307 103 q 208 76 235 103 q 181 17 181 50 q 215 -19 181 -19 q 290 18 250 -19 q 325 75 315 40 l 325 206 l 390 206 z "},"":{"ha":711,"x_min":63,"x_max":650,"o":"m 650 306 l 63 306 l 63 396 l 650 396 l 650 306 m 399 56 l 308 56 l 308 644 l 399 644 l 399 56 z "},"":{"ha":924,"x_min":1,"x_max":933,"o":"m 171 385 q 244 310 210 368 q 274 249 261 282 q 460 299 382 249 q 538 425 538 350 l 533 444 q 469 479 518 479 q 378 467 421 479 q 308 436 343 457 l 289 428 l 274 425 q 189 476 226 425 l 171 501 l 158 528 l 150 553 l 147 578 l 150 592 l 158 607 l 174 621 l 194 635 l 247 658 l 311 674 l 372 686 l 418 699 q 456 731 453 708 l 1 732 l 1 775 l 933 775 l 933 732 l 804 732 l 797 656 l 793 581 l 793 529 q 790 504 790 513 l 797 74 q 744 106 772 85 q 693 158 717 128 l 693 249 l 696 419 q 696 460 696 419 q 699 507 696 479 q 644 488 674 503 q 574 444 607 468 l 578 425 l 581 396 q 532 268 581 325 q 414 189 483 211 q 308 172 364 172 q 426 88 357 88 l 439 89 l 453 93 l 465 100 l 478 111 q 500 138 493 125 l 518 172 q 551 88 551 147 q 525 14 551 40 q 456 -18 496 -18 q 347 32 399 -18 q 296 93 321 56 q 276 131 286 111 q 260 172 272 142 l 217 174 q 85 211 129 176 q 43 258 58 231 q 28 311 28 285 q 92 389 28 365 q 132 396 107 394 q 171 385 150 396 m 140 325 q 114 322 124 325 l 94 314 q 81 300 86 311 l 76 283 q 86 265 76 275 l 119 253 l 169 244 l 231 242 q 140 325 186 325 m 515 657 l 460 635 l 392 619 q 328 604 336 607 q 267 581 292 594 l 244 568 l 229 556 l 219 542 l 217 529 q 238 488 217 503 q 413 556 322 556 q 546 507 506 556 q 699 549 635 549 l 700 596 q 700 633 700 596 q 706 663 703 644 l 707 688 l 707 703 l 790 732 l 503 732 l 565 704 q 515 657 565 676 z "},"":{"ha":778,"x_min":3,"x_max":786,"o":"m 183 349 q 79 426 114 367 q 65 479 65 450 q 158 622 65 563 q 385 682 251 682 q 499 619 465 682 l 499 704 l 581 732 l 3 732 l 3 775 l 786 775 l 786 732 l 594 732 l 594 621 q 636 604 621 617 q 692 542 671 590 q 700 501 700 522 q 629 404 700 454 q 442 325 568 361 l 472 329 l 513 332 q 589 319 547 335 q 662 267 631 304 q 693 186 693 229 q 589 56 693 108 q 477 16 539 31 q 343 1 415 1 q 149 51 232 1 q 65 172 65 100 q 117 271 65 228 q 179 311 142 292 q 260 339 204 324 q 183 349 208 342 m 404 68 q 575 129 500 85 q 638 221 638 165 q 626 250 638 238 q 551 292 607 279 l 499 297 q 461 294 474 297 l 424 286 q 385 271 396 276 l 343 249 l 360 283 q 385 311 368 297 q 276 275 338 300 q 138 181 175 233 q 119 131 119 156 q 129 103 119 118 q 206 63 153 75 l 260 57 q 404 68 354 60 m 624 535 q 581 592 624 581 l 569 586 l 561 581 l 550 574 l 540 567 l 526 558 l 518 556 q 507 563 510 560 l 499 578 q 414 619 476 619 q 224 569 324 619 l 183 544 l 153 519 l 133 494 l 128 472 q 183 397 128 426 q 246 375 201 388 q 322 368 283 368 q 624 535 624 474 z "},"":{"ha":1047,"x_min":60,"x_max":989,"o":"m 989 640 l 914 568 l 840 640 l 915 714 l 989 640 m 600 633 l 525 561 l 451 633 l 526 707 l 600 633 m 208 632 l 133 560 l 60 632 l 135 706 l 208 632 z "},"":{"ha":944,"x_min":8,"x_max":964,"o":"m 203 550 q 281 456 253 524 q 303 382 294 422 q 497 508 443 415 q 513 564 513 536 q 404 693 513 656 q 338 703 374 703 q 156 654 210 703 q 204 731 156 708 l 8 732 l 8 775 l 964 775 l 964 732 l 469 732 l 501 704 q 528 672 521 688 l 546 635 q 554 592 554 606 q 644 632 594 622 q 679 635 660 635 q 800 586 747 635 q 868 472 844 542 q 883 368 883 422 q 829 210 883 275 q 693 144 775 144 q 643 181 665 144 l 617 224 l 594 278 q 624 261 606 268 l 665 256 q 819 378 774 256 q 833 458 833 415 q 756 554 833 522 q 701 564 731 564 q 607 547 650 564 q 547 501 574 535 q 464 385 531 440 q 308 297 403 333 q 369 186 339 221 q 406 154 385 168 q 442 144 421 147 q 508 169 485 144 q 526 226 526 189 q 561 144 554 199 q 554 106 561 121 q 508 50 544 71 q 476 43 497 46 q 421 60 453 43 q 311 185 358 100 q 267 283 288 225 l 246 281 l 226 279 q 147 292 190 276 q 56 375 92 314 q 43 436 43 403 q 75 526 43 488 q 156 564 107 564 q 203 550 181 567 m 206 344 q 253 360 231 347 q 224 456 242 428 l 213 472 l 204 483 l 193 490 l 183 493 q 156 486 169 493 l 128 465 l 106 439 q 99 410 101 431 l 103 383 l 115 360 l 133 344 l 156 339 l 206 344 m 625 378 l 714 421 l 774 397 l 838 338 l 910 233 l 944 133 l 901 101 l 850 210 l 742 321 l 718 293 l 682 253 l 594 278 l 625 378 z "},"":{"ha":743,"x_min":4,"x_max":746,"o":"m 668 457 l 486 458 q 299 419 381 458 q 178 311 217 381 q 151 213 151 265 q 225 99 151 146 q 403 51 299 51 q 604 101 521 51 l 599 53 q 403 1 510 1 q 268 21 331 1 q 118 111 178 49 q 53 269 53 182 q 103 378 53 321 q 236 472 149 429 q 154 506 174 486 q 139 518 144 513 q 113 550 124 533 q 103 583 103 567 q 164 633 103 608 l 236 654 l 332 675 q 446 703 369 682 q 486 731 482 717 l 4 732 l 4 775 l 746 775 l 746 732 l 514 732 l 585 690 q 574 668 585 679 l 542 650 l 490 633 l 424 619 q 365 611 396 615 q 331 600 361 610 q 224 561 251 585 q 207 535 210 550 l 207 529 l 211 524 l 218 517 l 228 511 l 254 500 l 290 493 q 439 521 364 518 q 472 521 460 521 q 525 526 476 521 q 574 524 560 529 q 643 524 585 519 q 707 515 694 528 l 668 457 z "},"":{"ha":528,"x_min":43,"x_max":500,"o":"m 444 564 q 379 517 413 531 q 303 503 346 503 l 290 503 q 254 521 254 503 l 257 531 l 265 542 l 279 553 l 294 560 q 393 611 363 576 q 408 638 401 619 l 414 667 l 413 678 l 411 685 l 414 667 q 350 686 372 667 q 329 710 338 696 l 324 740 q 344 793 324 772 q 369 810 356 804 l 400 815 q 469 785 439 815 q 500 700 500 754 q 444 564 500 624 m 233 563 q 205 533 233 563 q 92 503 176 503 l 79 503 q 43 521 43 503 l 46 531 l 56 543 l 69 554 l 85 560 q 183 611 153 576 q 199 638 192 619 l 204 667 l 203 678 l 201 685 l 204 667 q 140 686 163 667 q 119 710 128 696 l 114 740 q 135 793 114 772 q 160 810 146 804 l 190 815 q 260 785 229 815 q 290 700 290 754 q 233 563 290 624 z "},"":{"ha":799,"x_min":3,"x_max":829,"o":"m 3 732 l 3 775 l 829 775 l 829 732 l 606 732 l 604 693 l 603 607 q 601 553 603 593 q 600 499 600 519 l 600 396 q 743 553 640 515 q 810 564 774 564 q 824 557 818 564 l 829 535 q 810 507 829 513 q 696 417 757 507 q 600 186 643 338 l 606 75 q 501 144 543 94 l 501 313 q 414 221 467 253 q 292 186 356 186 q 133 279 199 186 q 68 507 68 372 q 124 731 68 640 l 3 732 m 414 335 q 444 373 414 335 q 501 535 475 411 l 501 578 l 504 663 l 508 703 l 592 732 l 151 732 l 243 704 q 138 403 138 579 q 178 299 138 342 q 222 265 200 275 q 278 256 254 254 q 414 335 353 258 z "},"":{"ha":528,"x_min":1,"x_max":725,"o":"m 368 261 l 403 286 q 429 318 419 297 l 178 621 l 164 581 l 157 538 l 153 490 l 151 436 q 187 300 150 360 q 276 242 224 240 q 303 244 286 243 q 368 261 343 247 m 1 732 l 1 775 l 547 775 l 547 732 l 151 732 l 214 704 l 200 669 l 457 369 l 465 382 l 481 413 l 486 425 l 547 333 q 388 182 500 222 q 318 172 349 172 q 144 278 222 172 q 67 507 67 383 q 108 731 67 681 l 1 732 m 725 732 l 593 732 l 582 578 l 579 425 q 582 238 579 428 q 593 74 583 168 q 496 144 538 96 l 490 272 l 492 661 l 496 703 l 579 732 l 383 732 l 383 775 l 725 775 l 725 732 z "},"":{"ha":0,"x_min":-657,"x_max":-15,"o":"m -414 63 q -396 58 -414 63 q -351 44 -378 54 q -326 33 -333 38 q -246 -7 -299 21 q -207 -32 -231 -15 q -15 -236 -56 -137 l -74 -278 l -81 -254 l -93 -232 l -108 -207 l -128 -185 l -174 -136 l -231 -89 q -351 -17 -279 -49 q -449 7 -404 7 q -565 -22 -517 7 q -614 -90 -614 -50 q -608 -108 -614 -99 l -596 -124 l -575 -133 q -553 -137 -564 -139 l -532 -136 l -512 -133 l -493 -125 l -472 -114 l -444 -89 q -435 -62 -437 -78 l -436 -40 l -440 -21 l -432 -24 l -417 -33 l -407 -42 q -379 -74 -393 -54 q -371 -110 -371 -90 l -374 -124 l -382 -139 l -396 -153 l -415 -167 l -458 -187 q -503 -194 -483 -194 q -562 -183 -536 -194 q -630 -133 -603 -171 q -657 -54 -657 -96 q -603 32 -657 -6 q -476 69 -553 67 q -414 63 -450 71 z "},"":{"ha":590,"x_min":-206,"x_max":725,"o":"m -132 565 q -183 668 -183 611 q -178 694 -183 682 l -157 722 l -124 750 l -79 775 q 131 829 17 829 q 197 818 167 829 q 268 763 239 803 q 297 675 297 724 q 251 600 297 638 q 140 536 213 568 q 24 483 42 493 q -118 368 -83 424 q -136 311 -136 338 q -129 281 -136 293 l -107 257 q -75 240 -92 246 l -37 235 l 3 235 q 88 256 29 239 l 76 292 l 74 339 q 96 414 71 379 q 161 463 121 449 q 214 472 188 472 q 290 438 256 472 q 325 354 325 403 q 313 306 325 331 q 226 224 292 263 q 158 193 203 210 q 297 88 219 83 l 325 89 q 369 99 354 90 l 388 108 l 375 58 q 360 19 369 35 l 351 6 l 343 -4 l 333 -10 l 325 -12 l 297 -8 l 272 0 q 244 15 257 6 l 218 38 q 167 97 194 63 q 139 146 149 125 l 122 178 l 103 175 l 83 174 l 57 172 l 17 172 q -139 219 -72 172 q -206 339 -206 267 q -196 382 -206 361 q -139 458 -176 424 q -81 503 -111 483 q -51 521 -60 515 q -132 565 -101 539 m 100 590 q 224 685 186 636 q 240 731 240 707 q 235 749 240 742 q 217 765 231 757 l 190 775 q 158 779 179 779 q 128 777 149 779 q 100 775 108 775 q 75 769 92 775 l 35 756 l -4 735 l -40 710 l -67 685 l -82 661 l -87 640 q -65 586 -87 608 q -35 564 -49 569 l 3 549 l 54 567 q 100 590 58 568 m 242 326 q 283 388 278 350 q 254 425 283 424 q 168 382 207 426 l 150 361 l 142 350 l 135 339 l 125 317 l 122 297 q 125 281 122 286 l 131 269 q 242 326 207 299 m 438 571 q 283 521 356 571 q 271 553 275 533 l 268 597 l 311 607 l 351 614 l 392 618 l 438 619 l 438 571 m 368 732 l 369 732 l 347 775 l 368 775 l 368 732 m 725 732 l 593 732 l 582 578 l 579 425 q 582 238 579 428 q 593 74 583 168 q 496 144 538 96 l 490 272 l 492 661 l 496 703 l 579 732 l 383 732 l 383 775 l 725 775 l 725 732 z "},"":{"ha":875,"x_min":-10,"x_max":883,"o":"m 94 650 l 172 664 l 246 672 l 313 675 q 471 640 400 679 q 536 549 536 603 q 486 440 536 490 q 403 399 447 407 q 368 396 389 396 l 349 396 l 285 403 q 269 397 276 403 l 256 383 l 246 363 l 243 339 q 256 296 243 319 q 418 226 306 226 q 571 293 506 226 q 647 444 632 354 l 647 519 l 649 581 l 651 638 l 656 703 l 739 732 l -10 732 l -10 775 l 883 775 l 883 732 l 753 732 l 746 656 l 742 581 l 742 529 q 739 504 739 513 l 739 282 q 742 233 739 289 l 746 150 q 753 74 747 126 q 656 144 699 90 l 647 313 q 624 244 643 276 q 513 156 589 186 q 438 144 476 144 q 272 211 338 144 q 217 286 235 247 q 200 382 200 325 l 204 424 l 217 460 q 257 493 232 493 l 313 486 l 344 481 l 368 479 q 392 479 368 479 q 456 500 413 483 q 494 556 489 521 q 443 610 494 585 q 350 633 408 626 q 313 635 339 635 q 69 596 176 635 q 4 564 38 583 l 7 588 l 19 635 l 94 650 z "},"":{"ha":743,"x_min":4,"x_max":746,"o":"m 154 506 q 139 518 144 513 q 113 550 124 533 q 103 583 103 567 q 164 633 103 608 l 236 654 l 332 675 q 446 703 369 682 q 486 731 482 717 l 4 732 l 4 775 l 746 775 l 746 732 l 514 732 l 585 690 q 574 668 585 679 l 542 650 l 490 633 l 424 619 q 365 611 396 615 q 331 600 361 610 q 224 561 251 585 q 207 535 210 550 l 207 529 l 211 524 l 218 517 l 228 511 l 254 500 l 290 493 q 439 521 364 518 q 472 521 460 521 q 553 506 518 521 q 668 399 631 479 q 683 325 683 364 l 678 303 q 640 253 672 278 l 613 231 l 581 213 l 544 197 l 507 189 l 472 186 q 381 225 439 183 l 357 242 l 338 263 l 321 285 l 313 306 l 315 306 l 328 297 l 340 292 q 383 271 357 279 q 438 263 408 263 q 547 303 504 263 q 590 396 590 343 q 563 440 590 422 q 528 453 546 450 l 486 458 q 299 419 381 458 q 178 311 217 381 q 151 213 151 265 q 225 99 151 146 q 403 51 299 51 q 604 101 521 51 l 599 53 q 403 1 510 1 q 268 21 331 1 q 118 111 178 49 q 53 269 53 182 q 103 378 53 321 q 236 472 149 429 q 154 506 174 486 z "},"":{"ha":785,"x_min":3,"x_max":793,"o":"m 278 650 q 306 611 293 638 l 306 704 l 389 732 l 3 732 l 3 775 l 793 775 l 793 732 l 661 732 l 650 578 l 647 425 q 650 238 647 428 q 661 74 651 168 q 563 144 633 82 l 560 199 q 557 229 560 210 l 557 263 l 544 267 l 529 269 q 401 249 451 269 l 401 188 q 390 121 401 149 q 317 28 371 56 q 263 15 292 15 q 144 56 188 15 q 96 150 96 93 q 163 249 96 210 q 214 269 178 258 l 306 299 l 306 389 q 228 354 264 354 q 106 410 154 354 q 53 549 53 469 q 197 672 53 649 q 235 675 214 675 q 278 650 258 669 m 275 89 q 304 146 296 111 q 306 172 306 156 l 306 228 l 206 188 q 151 115 151 165 q 154 92 151 100 l 167 74 l 185 61 l 206 57 q 275 89 243 57 m 292 465 l 318 486 l 339 493 q 401 465 374 493 l 401 326 l 422 332 l 449 336 l 481 338 l 521 339 l 557 285 l 557 396 l 560 600 q 561 651 560 614 q 563 703 563 685 l 639 732 l 401 732 l 401 613 q 353 575 389 599 q 311 564 336 567 l 304 568 l 290 583 q 267 600 282 594 l 228 606 q 107 543 138 606 q 96 501 99 525 q 122 449 96 472 q 154 431 136 436 l 192 425 q 292 465 249 432 z "},"":{"ha":993,"x_min":1,"x_max":1003,"o":"m 178 501 q 117 558 133 515 q 110 592 110 575 q 164 638 110 621 l 226 657 l 306 675 l 399 692 q 450 704 440 699 q 475 731 478 711 l 1 732 l 1 775 l 1003 775 l 1003 732 l 867 732 l 863 501 q 860 474 860 483 l 858 425 l 860 346 q 860 285 860 346 q 865 242 863 268 l 872 74 q 775 144 825 86 l 774 176 l 771 225 l 771 244 q 768 274 771 254 l 767 311 q 614 278 694 311 l 614 214 q 592 168 614 186 l 567 154 l 538 150 q 475 189 507 150 l 447 222 q 439 256 439 239 q 529 346 439 325 l 529 426 l 526 446 q 521 464 526 454 l 513 475 q 501 479 508 479 q 235 403 340 479 q 125 213 125 324 q 209 92 125 142 q 404 43 293 43 q 558 74 522 43 q 544 42 554 57 l 525 19 l 501 6 l 475 1 q 160 69 267 1 q 54 269 54 136 q 68 343 54 310 q 154 450 92 404 q 224 488 185 474 q 178 501 197 489 m 403 521 q 433 521 422 521 q 499 510 464 521 q 578 464 547 494 l 599 447 l 610 428 l 614 410 l 614 369 l 660 378 l 725 382 l 767 326 l 768 561 q 775 703 768 654 l 858 732 l 501 732 q 529 668 524 706 q 333 606 529 638 q 286 594 308 601 l 231 576 l 203 560 q 194 542 194 551 l 199 526 l 211 513 l 231 501 l 257 493 q 288 501 261 494 q 403 521 350 518 z "},"":{"ha":660,"x_min":63,"x_max":621,"o":"m 482 742 q 603 557 565 685 q 621 425 621 492 q 535 176 621 278 q 328 74 450 74 q 140 184 218 74 q 63 450 63 294 q 156 679 63 586 q 383 774 249 772 q 482 742 435 774 m 478 240 q 567 479 567 338 q 554 571 567 531 q 472 686 528 653 q 411 703 443 703 q 203 600 290 703 q 138 488 161 550 q 117 354 117 432 q 129 267 117 307 q 211 158 149 197 q 272 144 243 143 q 478 240 393 149 z "},"":{"ha":8404,"x_min":4996,"x_max":5756,"o":"m 5018 732 l 5018 775 l 5756 775 l 5756 732 l 5621 732 l 5619 696 l 5618 615 q 5617 565 5618 603 q 5615 517 5615 535 l 5617 133 l 5621 74 q 5515 144 5551 101 l 5515 313 q 5429 221 5481 254 q 5307 186 5374 186 q 5149 277 5217 186 q 5082 507 5082 368 q 5139 731 5082 638 l 5018 732 m 5426 333 q 5457 368 5426 333 q 5515 535 5488 404 l 5515 704 l 5607 732 l 5167 732 l 5243 704 l 5210 650 l 5186 581 l 5171 494 l 5167 396 q 5188 314 5165 358 l 5200 297 q 5236 265 5215 278 q 5278 256 5253 258 q 5426 333 5365 261 m 5563 222 l 5496 208 q 5315 161 5406 189 q 5185 113 5249 140 q 5133 86 5160 101 l 5129 85 q 5039 24 5079 57 l 5022 43 l 5014 54 l 5000 74 l 4996 88 q 5563 263 5129 181 l 5563 222 z "},"":{"ha":771,"x_min":0,"x_max":779,"o":"m 411 597 q 549 425 493 539 l 549 538 q 551 572 549 554 l 553 601 q 556 631 553 613 l 556 657 q 558 683 556 674 l 557 694 l 557 703 l 633 732 l 0 732 l 0 775 l 779 775 l 779 732 l 647 732 l 636 578 l 633 425 q 636 238 633 428 q 647 74 638 168 l 626 75 l 604 89 l 578 111 l 549 144 l 549 361 q 508 351 536 361 l 442 328 l 374 301 l 325 283 q 382 172 382 229 q 371 111 382 138 q 321 43 358 71 q 240 15 283 15 q 122 58 171 15 q 74 164 74 100 q 192 292 74 225 q 515 417 328 367 q 467 483 496 451 q 354 565 413 542 q 290 578 322 578 q 318 519 313 557 q 319 488 319 508 q 308 440 319 461 q 232 376 293 400 q 178 368 210 368 q 131 377 151 368 q 94 408 110 386 q 60 507 60 446 q 108 615 60 571 q 226 660 156 658 q 411 597 321 661 m 238 89 q 332 156 293 106 q 346 193 343 174 q 335 236 346 211 q 306 269 326 251 q 167 200 218 240 q 127 161 139 179 q 115 122 115 143 l 119 104 l 135 90 l 158 82 l 186 79 l 217 82 q 238 89 228 86 m 211 442 q 246 460 229 444 q 276 515 276 481 q 249 578 276 550 q 190 567 215 578 l 143 546 q 101 488 107 524 l 106 468 q 143 439 118 446 l 172 436 l 211 442 z "},"":{"ha":813,"x_min":0,"x_max":811,"o":"m 347 149 q 444 278 422 196 l 422 272 l 389 271 l 340 269 l 271 269 q 197 249 232 264 q 108 181 132 219 q 96 136 96 158 q 101 122 99 125 l 118 111 l 143 103 l 172 101 q 224 104 207 103 q 347 149 285 110 m 521 661 q 536 640 528 651 l 536 704 l 619 732 l 0 732 l 0 775 l 811 775 l 811 732 l 635 732 l 635 650 q 625 632 635 642 l 600 615 l 582 606 l 550 592 l 517 613 q 481 619 504 617 q 262 567 351 619 q 172 436 172 514 q 224 368 172 393 q 282 346 251 353 q 354 339 319 338 l 390 340 l 429 340 q 453 346 443 340 l 451 356 l 451 368 q 564 510 451 469 q 635 521 597 521 q 703 494 672 521 q 733 425 728 472 q 673 336 733 376 q 510 278 613 296 q 532 203 517 236 q 603 114 560 138 q 649 101 624 101 q 747 144 707 101 l 750 129 l 751 115 q 685 11 751 43 q 642 1 667 1 q 539 76 588 1 q 493 163 510 119 q 467 269 479 200 q 390 111 467 179 q 201 43 314 43 q 46 132 86 43 q 33 186 33 157 q 82 270 33 235 q 201 306 131 306 l 235 299 q 168 331 200 304 q 125 390 136 357 q 117 436 117 411 q 222 613 117 538 q 481 689 326 689 q 521 661 497 690 m 701 450 l 693 463 l 679 469 l 663 472 q 557 447 607 472 q 494 367 494 417 l 494 360 l 496 354 l 536 360 q 649 389 592 365 q 683 406 674 399 q 704 436 701 418 q 701 450 703 447 z "},"":{"ha":590,"x_min":86,"x_max":553,"o":"m 432 763 q 410 731 418 749 l 404 693 q 442 685 426 690 q 468 667 457 679 l 482 646 l 488 617 q 465 561 488 583 l 440 547 l 411 543 q 343 571 374 543 q 308 658 308 601 q 364 794 308 731 q 393 819 376 810 l 425 839 l 461 850 l 504 854 l 517 857 q 543 851 535 857 q 553 836 551 846 l 549 825 l 539 815 l 525 806 l 511 800 q 432 763 461 792 m 242 783 q 189 731 206 771 l 183 693 q 219 682 208 689 q 246 667 236 676 l 260 646 l 265 617 q 243 561 265 583 l 218 547 l 189 543 q 121 571 151 543 q 86 658 86 601 q 142 794 86 731 q 171 819 154 810 l 203 839 l 239 850 l 282 854 l 294 857 q 321 851 313 857 q 331 836 329 846 l 326 825 l 317 815 l 303 806 l 289 800 q 242 783 260 794 z "},"":{"ha":1058,"x_min":63,"x_max":996,"o":"m 544 883 l 481 819 l 417 885 l 482 947 l 544 883 m 704 788 q 511 688 633 688 q 307 831 360 688 l 319 838 q 481 760 374 760 q 636 853 575 760 l 704 788 m 996 453 q 960 338 996 388 q 856 282 919 282 q 767 319 810 282 q 710 400 728 353 q 607 283 656 308 l 563 260 q 522 249 542 249 q 453 264 503 249 q 482 158 482 217 l 482 143 q 479 126 479 132 q 429 25 465 51 q 329 -7 393 -1 q 311 -8 325 -8 q 143 76 235 -8 q 63 185 63 151 l 96 218 q 165 143 103 192 q 293 93 239 86 q 407 176 392 106 q 410 190 410 185 l 410 204 q 350 300 410 269 q 332 286 338 290 q 225 243 288 253 l 165 343 q 294 394 196 343 q 376 485 376 438 q 297 554 376 554 q 229 543 271 554 q 173 516 207 538 q 126 478 139 494 l 78 589 q 156 621 106 607 q 242 635 206 635 q 271 632 254 635 q 438 507 408 608 q 447 443 447 472 q 404 342 447 393 q 432 329 429 329 q 472 322 451 322 q 575 385 529 322 q 703 567 594 411 q 844 638 776 638 q 956 576 910 638 q 996 453 996 521 m 940 464 q 874 560 940 546 q 797 530 833 568 q 760 451 760 492 q 787 394 760 418 q 847 371 814 371 q 913 399 885 371 q 940 464 940 426 z "},"":{"ha":813,"x_min":-12,"x_max":815,"o":"m 501 732 l 515 718 q 340 635 379 692 q 328 597 328 617 q 349 564 328 564 l 360 565 l 388 585 l 399 592 l 407 599 l 418 606 q 497 639 449 625 q 572 649 531 649 q 631 638 607 649 q 698 587 671 625 q 725 507 725 549 q 661 388 725 438 q 501 339 597 339 q 422 313 469 331 q 322 249 353 289 q 306 213 308 231 l 308 201 l 319 199 q 467 256 394 199 q 560 283 506 281 q 586 283 576 283 q 685 251 643 283 q 725 172 725 214 q 633 53 725 104 q 404 1 542 1 q 261 17 319 1 q 150 65 197 33 l 110 99 q 67 164 78 131 l 60 185 l 54 235 l 58 261 q 72 286 63 276 l 93 307 l 124 325 q 90 213 90 283 q 174 110 90 153 q 265 75 215 88 q 376 65 326 65 q 607 104 515 65 q 699 193 699 143 l 694 206 l 682 217 l 663 224 l 642 226 q 550 215 599 226 q 481 189 518 208 q 414 154 415 154 l 382 144 q 306 172 339 144 q 257 249 263 208 q 342 346 257 303 q 139 410 224 346 q 54 569 54 475 q 68 619 54 603 l 83 632 l 107 647 l 133 664 l 153 675 q 96 549 96 632 q 179 440 96 490 q 376 396 271 396 q 606 437 514 396 q 699 535 699 478 q 693 554 699 544 l 681 569 l 660 579 l 635 583 q 481 549 547 583 l 458 533 l 431 514 l 406 499 l 390 493 q 357 501 372 493 l 336 511 q 269 582 286 543 q 257 640 257 608 l 258 653 l 263 667 l 269 679 l 281 692 q 307 714 288 700 l 342 731 l -12 732 l -12 775 l 815 775 l 815 732 l 501 732 z "},"":{"ha":736,"x_min":0,"x_max":742,"o":"m 117 457 q 57 508 68 479 q 49 549 51 522 q 136 647 49 607 q 292 686 201 676 q 354 689 318 689 q 467 619 421 689 l 467 704 l 550 732 l 0 732 l 0 775 l 742 775 l 742 732 l 564 732 l 564 607 l 507 567 l 496 564 q 479 567 485 564 l 467 578 q 451 594 463 589 q 426 608 446 601 l 393 617 l 354 619 q 260 611 317 622 q 197 590 239 607 q 146 558 161 575 q 131 521 131 542 q 136 506 131 513 l 157 492 l 186 482 l 221 479 l 288 500 l 326 507 q 397 436 354 507 q 300 425 347 436 q 208 390 246 413 l 168 367 l 140 344 q 122 319 129 333 l 117 297 q 126 264 117 279 q 182 226 151 236 l 204 218 l 258 213 l 326 213 q 344 215 339 215 q 397 226 381 219 q 385 257 389 239 l 382 297 q 432 387 378 349 q 564 425 486 425 q 656 356 631 425 q 663 311 663 333 q 633 246 663 276 q 546 186 600 208 q 467 158 531 176 q 549 71 511 85 q 578 65 560 65 q 638 86 611 65 l 660 111 q 676 144 671 126 q 647 43 676 81 q 615 11 635 24 q 578 1 600 4 q 453 89 507 1 q 425 150 440 110 l 385 146 l 313 144 q 144 196 210 143 q 90 256 113 221 q 74 325 74 288 q 158 450 74 407 q 117 457 144 451 m 632 364 l 626 374 l 617 379 l 606 382 q 488 333 547 382 q 425 235 425 281 l 511 261 q 535 269 519 264 l 542 272 q 619 322 594 293 q 635 354 632 338 q 632 364 633 363 z "},"":{"ha":535,"x_min":71,"x_max":475,"o":"m 407 307 q 385 256 394 286 l 379 204 l 379 -85 q 319 -211 379 -165 q 224 -250 282 -240 q 182 -253 207 -253 l 71 -253 l 71 -199 l 179 -199 q 278 -169 243 -199 q 315 -82 315 -146 l 318 231 l 329 267 l 343 301 l 361 326 l 378 340 l 401 358 l 411 364 l 426 374 l 356 421 l 340 439 l 329 467 l 318 503 l 315 533 l 315 822 q 274 910 315 874 q 179 946 232 946 l 71 947 l 71 990 l 182 990 l 193 992 l 203 994 l 211 996 l 224 996 q 333 942 286 996 q 379 824 379 888 l 381 508 q 386 483 382 493 l 394 458 l 406 436 l 413 425 l 433 404 l 447 393 l 458 385 l 475 374 q 407 307 433 353 z "},"":{"ha":306,"x_min":-15,"x_max":981,"o":"m 151 775 q 81 818 108 785 q 60 850 74 826 l 54 886 q 150 1032 54 954 q 335 1110 246 1110 q 590 1021 472 1110 q 760 788 699 939 l 732 789 q 572 972 681 903 q 457 1022 521 1004 q 335 1039 393 1039 q 200 976 256 1039 q 150 919 171 956 q 132 858 132 890 q 178 783 132 810 l 208 774 l 325 775 l 325 732 l 194 732 l 182 581 l 179 425 q 182 235 179 424 q 194 74 183 183 q 97 144 147 89 l 90 279 l 90 614 q 97 703 90 663 l 174 732 l -15 732 l -15 775 l 151 775 m 947 1181 q 973 1149 965 1167 q 981 1108 981 1131 q 913 1135 957 1129 q 875 1136 900 1136 q 777 1103 818 1136 q 736 1018 736 1071 q 826 865 736 928 l 776 867 q 660 1032 660 946 q 718 1154 660 1104 q 868 1207 776 1204 q 947 1181 910 1208 z "},"":{"ha":306,"x_min":-15,"x_max":871,"o":"m 151 775 q 81 818 108 785 q 60 850 74 826 l 54 886 q 150 1032 54 954 q 335 1110 246 1110 q 590 1021 472 1110 q 760 788 699 939 l 732 789 q 572 972 681 903 q 457 1022 521 1004 q 335 1039 393 1039 q 200 976 256 1039 q 150 919 171 956 q 132 858 132 890 q 178 783 132 810 l 208 774 l 325 775 l 325 732 l 194 732 l 182 581 l 179 425 q 182 235 179 424 q 194 74 183 183 q 97 144 147 89 l 90 279 l 90 614 q 97 703 90 663 l 174 732 l -15 732 l -15 775 l 151 775 m 850 932 l 828 917 l 801 911 l 775 915 q 753 931 764 919 l 738 953 l 732 979 q 753 1026 732 1006 l 775 1043 l 801 1049 q 849 1028 828 1049 q 865 1006 860 1019 l 871 979 q 850 932 871 953 z "},"":{"ha":326,"x_min":-237,"x_max":343,"o":"m 117 875 q 40 1019 96 975 q -12 1039 14 1039 q -156 932 -117 1039 q -167 864 -167 901 q -146 815 -167 836 l -124 797 l -96 788 l -168 789 l -194 803 l -218 829 l -232 861 l -237 899 l -233 933 l -221 969 l -200 1003 l -172 1039 l -139 1069 l -107 1092 l -74 1106 l -40 1110 q 107 1010 44 1110 q 169 774 169 910 l 336 775 l 336 732 l 204 732 l 193 578 l 190 425 q 193 238 190 428 q 204 74 194 168 q 108 144 149 94 l 101 271 l 103 663 l 108 703 l 185 732 l -6 732 l -6 775 l 128 775 q 117 875 128 822 m 322 876 l 300 861 l 274 856 l 247 860 q 225 875 236 864 l 210 897 l 204 924 q 225 971 204 950 l 247 988 l 274 993 q 321 972 300 993 q 338 950 332 964 l 343 924 q 322 876 343 897 z "},"":{"ha":326,"x_min":-237,"x_max":343,"o":"m 117 875 q 40 1019 96 975 q -12 1039 14 1039 q -156 932 -117 1039 q -167 864 -167 901 q -146 815 -167 836 l -124 797 l -96 788 l -168 789 l -194 803 l -218 829 l -232 861 l -237 899 l -233 933 l -221 969 l -200 1003 l -172 1039 l -139 1069 l -107 1092 l -74 1106 l -40 1110 q 107 1010 44 1110 q 169 774 169 910 l 336 775 l 336 732 l 204 732 l 193 578 l 190 425 q 193 238 190 428 q 204 74 194 168 q 108 144 149 94 l 101 271 l 103 663 l 108 703 l 185 732 l -6 732 l -6 775 l 128 775 q 117 875 128 822 m 322 876 l 300 861 l 274 856 l 247 860 q 225 875 236 864 l 210 897 l 204 924 q 225 971 204 950 l 247 988 l 274 993 q 321 972 300 993 q 338 950 332 964 l 343 924 q 322 876 343 897 z "},"":{"ha":306,"x_min":-15,"x_max":960,"o":"m 151 775 q 81 818 108 785 q 60 850 74 826 l 54 886 q 150 1032 54 954 q 335 1110 246 1110 q 590 1021 472 1110 q 760 788 699 939 l 732 789 q 572 972 681 903 q 457 1022 521 1004 q 335 1039 393 1039 q 200 976 256 1039 q 150 919 171 956 q 132 858 132 890 q 178 783 132 810 l 208 774 l 325 775 l 325 732 l 194 732 l 182 581 l 179 425 q 182 235 179 424 q 194 74 183 183 q 97 144 147 89 l 90 279 l 90 614 q 97 703 90 663 l 174 732 l -15 732 l -15 775 l 151 775 m 926 1208 q 952 1176 944 1194 q 960 1136 960 1158 q 892 1163 936 1157 q 854 1164 879 1164 q 756 1131 797 1164 q 715 1046 715 1099 q 806 893 715 956 l 756 894 q 639 1060 639 974 q 697 1182 639 1132 q 847 1235 756 1232 q 926 1208 889 1236 m 839 1090 l 854 1096 l 869 1090 q 888 1074 878 1086 l 904 1054 l 910 1040 l 908 1031 l 903 1021 l 897 1014 l 868 989 l 854 983 l 847 983 l 839 988 l 829 994 l 819 1006 l 803 1024 l 797 1040 l 803 1054 l 819 1074 l 839 1090 z "},"":{"ha":326,"x_min":-237,"x_max":507,"o":"m 117 875 q 40 1019 96 975 q -12 1039 14 1039 q -156 932 -117 1039 q -167 864 -167 901 q -146 815 -167 836 l -124 797 l -96 788 l -168 789 l -194 803 l -218 829 l -232 861 l -237 899 l -233 933 l -221 969 l -200 1003 l -172 1039 l -139 1069 l -107 1092 l -74 1106 l -40 1110 q 107 1010 44 1110 q 169 774 169 910 l 336 775 l 336 732 l 204 732 l 193 578 l 190 425 q 193 238 190 428 q 204 74 194 168 q 108 144 149 94 l 101 271 l 103 663 l 108 703 l 185 732 l -6 732 l -6 775 l 128 775 q 117 875 128 822 m 499 1081 q 507 1039 504 1065 q 432 1067 474 1064 q 413 1067 419 1067 l 400 1067 l 388 1065 l 374 1061 l 361 1057 q 333 1042 347 1053 l 308 1022 q 253 933 258 983 q 336 801 253 835 l 279 803 q 204 858 233 818 l 182 901 q 175 949 175 925 q 219 1060 175 1011 q 322 1124 260 1104 q 413 1138 363 1136 q 499 1081 476 1139 z "},"":{"ha":0,"x_min":-647,"x_max":24,"o":"m -582 1106 q -537 1110 -565 1110 q -501 1100 -519 1110 q -458 1064 -475 1085 l -414 1011 l -369 942 q -276 832 -325 872 q -147 763 -228 792 l -233 764 q -279 788 -257 772 q -362 858 -326 815 l -399 901 q -474 976 -429 949 l -515 997 q -557 1004 -529 1001 q -601 994 -578 1004 q -640 969 -618 988 l -646 969 l -647 978 l -642 1010 q -628 1049 -637 1029 q -606 1096 -617 1081 l -582 1106 m -236 1094 q -208 1053 -225 1082 l -185 1011 l -162 969 l -117 893 l -79 838 l -46 800 q -18 782 -32 788 l -60 764 q -139 846 -103 801 q -190 936 -167 881 l -206 972 q -250 1018 -218 1003 q -279 1026 -261 1024 q -357 969 -312 1026 l -364 983 l -368 1006 l -369 1026 q -353 1085 -372 1071 q -260 1110 -317 1110 q -236 1094 -253 1113 m 3 967 l -18 951 l -44 946 l -71 950 q -93 965 -83 954 q -108 988 -101 972 l -114 1014 q -93 1061 -114 1040 q -71 1078 -85 1072 l -44 1083 q 1 1063 -14 1083 q 18 1040 13 1053 l 24 1014 q 3 967 24 988 z "},"":{"ha":0,"x_min":-639,"x_max":-100,"o":"m -565 1103 q -553 1106 -565 1103 q -500 1110 -540 1110 q -418 1072 -458 1110 l -374 1031 l -308 964 l -218 868 l -142 790 l -171 764 q -500 1026 -433 1026 q -522 1024 -515 1026 l -544 1015 l -565 1003 l -585 985 l -600 969 l -618 964 q -633 968 -626 964 l -639 982 q -636 1010 -639 1001 l -628 1035 q -614 1058 -626 1039 l -599 1082 q -565 1103 -590 1096 m -105 976 q -107 970 -105 976 q -119 953 -108 964 l -143 938 l -169 932 l -196 936 q -218 951 -208 940 q -233 974 -226 958 l -239 1000 q -218 1047 -239 1026 q -196 1064 -210 1058 l -169 1069 q -122 1049 -143 1069 q -106 1026 -111 1040 l -100 1000 q -105 976 -101 988 z "},"":{"ha":493,"x_min":47,"x_max":458,"o":"m 257 774 q 332 758 296 774 q 424 681 390 733 q 458 564 458 628 q 325 396 458 489 q 206 263 224 325 l 197 257 l 192 256 l 182 260 l 174 272 l 167 290 l 165 311 q 188 378 164 336 q 207 403 196 392 l 257 454 l 325 507 q 389 569 375 546 q 410 635 410 603 q 378 683 410 663 l 340 697 l 297 703 q 165 642 228 703 q 114 533 114 592 l 115 526 l 115 521 l 85 557 l 64 586 l 51 608 l 47 626 l 51 649 l 65 674 l 75 686 l 86 700 l 100 713 l 115 725 q 146 743 121 731 q 257 774 203 774 m 182 206 q 200 213 186 210 q 218 206 211 213 l 239 186 l 256 163 q 263 144 260 157 q 256 125 263 136 l 239 100 l 217 79 l 200 74 l 182 79 l 160 100 l 143 125 l 138 144 q 160 186 138 161 l 182 206 z "},"":{"ha":394,"x_min":36,"x_max":360,"o":"m 111 -126 l 36 -106 l 282 756 l 360 736 l 111 -126 z "},"":{"ha":1896,"x_min":4174,"x_max":4732,"o":"m 4311 506 l 4324 497 l 4338 493 l 4350 490 l 4363 490 q 4522 564 4478 490 q 4535 608 4535 586 q 4524 651 4535 633 q 4449 717 4504 697 q 4396 726 4421 726 l 4174 728 l 4174 769 l 4732 769 l 4732 728 l 4535 728 q 4586 626 4575 678 q 4590 588 4590 607 q 4574 517 4590 551 q 4535 461 4558 483 q 4469 419 4511 439 q 4396 407 4436 407 l 4371 407 l 4297 414 q 4258 365 4264 410 q 4308 273 4258 313 q 4431 233 4357 233 q 4586 288 4514 233 q 4646 356 4624 317 q 4681 438 4668 396 l 4732 325 q 4611 190 4685 243 q 4506 144 4560 154 q 4467 142 4489 142 q 4283 224 4350 142 q 4215 442 4215 306 l 4219 468 q 4232 490 4224 481 q 4253 506 4240 500 l 4278 511 l 4311 506 z "},"":{"ha":799,"x_min":4,"x_max":803,"o":"m 189 507 l 154 533 q 132 560 140 543 q 124 592 124 578 q 136 614 124 601 q 174 636 147 622 l 232 657 l 304 675 l 399 692 l 449 704 q 472 731 472 710 l 4 732 l 4 775 l 803 775 l 803 732 l 486 732 l 550 683 q 538 660 550 672 l 503 639 l 449 619 l 381 604 l 290 588 q 222 549 222 575 q 225 532 222 538 l 236 518 l 251 507 l 271 501 l 296 510 l 332 515 l 381 519 l 446 521 q 521 511 481 522 q 613 439 582 493 q 626 388 626 414 q 597 351 626 365 l 563 335 l 518 325 q 436 289 469 314 q 403 226 403 264 l 407 211 l 422 197 l 446 189 l 472 186 q 589 206 535 186 q 621 222 603 210 q 683 311 683 254 l 685 321 q 697 325 693 325 l 704 322 l 714 321 l 733 311 l 746 297 l 751 283 q 692 185 751 225 q 542 144 633 144 q 394 183 456 144 q 332 278 332 222 q 375 350 332 315 q 422 378 393 364 q 474 393 444 388 l 521 401 q 558 411 544 406 q 578 424 571 417 l 585 436 q 560 461 576 454 l 532 469 l 500 472 q 354 453 440 478 q 233 392 289 433 q 150 304 176 351 q 124 199 124 257 q 143 139 124 167 q 344 46 208 61 q 403 43 368 43 q 557 74 521 43 q 472 1 533 1 q 161 69 269 1 q 53 269 53 136 q 65 338 53 306 q 157 446 89 399 q 236 488 189 467 q 189 507 210 496 z "},"":{"ha":799,"x_min":4,"x_max":803,"o":"m 189 507 l 154 533 q 132 560 140 543 q 124 592 124 578 q 136 614 124 601 q 174 636 147 622 l 232 657 l 304 675 l 399 692 l 449 704 q 472 731 472 710 l 4 732 l 4 775 l 803 775 l 803 732 l 486 732 l 550 683 q 538 660 550 672 l 503 639 l 449 619 l 381 604 l 290 588 q 222 549 222 575 q 225 532 222 538 l 236 518 l 251 507 l 271 501 l 296 510 l 332 515 l 381 519 l 446 521 q 521 511 481 522 q 613 439 582 493 q 626 388 626 414 q 597 351 626 365 l 563 335 l 518 325 q 436 289 469 314 q 403 226 403 264 l 407 211 l 422 197 l 446 189 l 472 186 q 589 206 535 186 q 621 222 603 210 q 683 311 683 254 l 685 321 q 697 325 693 325 l 704 322 l 714 321 l 733 311 l 746 297 l 751 283 q 692 185 751 225 q 542 144 633 144 q 394 183 456 144 q 332 278 332 222 q 375 350 332 315 q 422 378 393 364 q 474 393 444 388 l 521 401 q 558 411 544 406 q 578 424 571 417 l 585 436 q 560 461 576 454 l 532 469 l 500 472 q 354 453 440 478 q 233 392 289 433 q 150 304 176 351 q 124 199 124 257 q 143 139 124 167 q 344 46 208 61 q 403 43 368 43 q 557 74 521 43 q 472 1 533 1 q 161 69 269 1 q 53 269 53 136 q 65 338 53 306 q 157 446 89 399 q 236 488 189 467 q 189 507 210 496 z "},"":{"ha":944,"x_min":0,"x_max":953,"o":"m 0 775 l 953 775 l 953 732 l 818 732 l 817 696 l 815 615 q 814 565 815 603 q 813 517 813 535 l 814 133 l 818 74 q 783 93 808 76 l 719 144 l 719 228 q 538 144 625 144 q 465 156 494 144 q 364 246 396 182 q 350 311 350 274 q 385 354 350 349 l 414 356 l 454 356 q 472 358 467 358 q 556 397 532 367 q 567 425 564 408 l 563 444 l 550 463 q 531 475 542 472 l 510 479 q 243 397 353 479 q 133 199 133 314 q 240 72 133 119 q 343 46 288 53 q 399 43 365 43 q 553 74 517 43 q 468 1 529 1 q 157 69 265 1 q 49 269 49 136 q 61 338 49 306 q 153 446 85 399 q 232 488 185 467 q 185 507 206 496 l 150 533 q 128 560 136 543 q 119 592 119 578 q 132 614 119 601 q 169 636 143 622 l 228 657 l 300 675 l 403 690 q 443 697 421 693 q 496 731 499 710 l 0 732 l 0 775 m 299 496 l 329 507 q 468 521 368 521 q 567 485 526 521 q 608 396 608 450 q 557 315 608 356 q 433 283 507 283 q 399 256 399 283 q 407 236 399 249 q 433 221 414 229 l 474 210 l 524 207 q 650 260 593 203 q 719 396 703 313 l 719 490 l 721 563 q 721 592 721 563 q 722 609 721 597 q 724 628 724 621 l 728 703 l 804 732 l 510 732 l 514 725 l 519 719 l 522 713 l 526 707 l 531 693 l 532 675 q 519 656 532 668 q 485 638 510 649 l 429 621 l 360 606 q 292 590 338 601 l 243 576 l 214 560 q 204 542 207 553 q 210 528 207 531 l 225 514 l 249 501 l 281 493 l 299 496 z "},"":{"ha":785,"x_min":11,"x_max":782,"o":"m 121 592 q 174 638 121 621 l 235 657 l 315 675 l 408 692 q 460 704 450 699 q 485 731 488 711 l 11 732 l 11 775 l 782 775 l 782 732 l 511 732 q 554 660 554 707 q 547 646 550 649 l 526 635 l 479 622 l 392 606 l 328 594 l 294 588 q 219 549 225 574 q 236 515 219 529 q 288 493 253 501 l 322 504 l 364 514 l 411 518 l 471 521 q 551 514 513 522 q 694 436 669 497 l 694 146 q 679 147 685 146 l 640 168 l 610 186 l 610 326 l 463 285 q 511 199 511 267 q 493 160 511 169 q 471 147 485 151 l 443 144 q 354 179 389 144 q 326 221 338 196 q 315 269 315 246 q 324 292 315 279 l 351 315 l 392 336 l 443 354 l 610 397 l 610 467 l 604 468 l 599 471 l 592 472 l 586 475 l 572 478 l 554 479 q 390 461 483 485 q 165 322 231 421 q 135 226 135 278 q 200 88 135 149 q 313 33 246 44 q 358 29 336 29 q 539 88 494 29 l 544 92 l 553 94 l 558 92 l 565 88 l 568 81 l 568 74 l 551 36 l 533 15 q 489 4 525 11 l 414 1 q 258 18 332 -1 q 64 256 64 67 q 172 447 64 365 q 247 488 199 467 q 225 493 233 490 q 156 526 185 503 q 121 592 121 556 m 436 176 l 454 189 q 467 208 464 199 l 471 235 q 462 260 471 253 q 429 269 453 268 q 367 213 367 253 q 369 197 367 203 l 381 185 l 396 175 l 414 172 q 436 176 435 175 z "},"":{"ha":507,"x_min":-93,"x_max":521,"o":"m 150 450 l 94 488 q 53 535 71 510 l 25 585 q 17 635 17 610 q 64 736 17 692 q 164 793 104 775 q 254 807 210 807 q 346 788 318 807 q 429 592 429 729 q 283 417 429 500 q 514 354 396 354 l 521 313 l 438 317 q 293 360 368 319 q 240 396 264 375 q 65 343 128 358 q -58 325 -8 325 q -93 425 -86 378 l -58 413 l -25 410 q 6 411 -17 410 q 150 450 86 419 m 272 524 l 306 547 q 372 617 349 578 q 388 654 385 636 q 367 708 388 686 q 340 725 356 719 l 311 731 q 238 719 278 731 q 113 651 147 694 q 93 611 96 632 q 119 536 93 575 l 150 501 q 192 472 169 485 q 272 524 238 499 m 521 732 l 458 732 l 438 775 l 521 775 l 521 732 z "},"":{"ha":764,"x_min":-7,"x_max":772,"o":"m 83 643 l 136 675 q 79 549 79 635 q 98 491 79 515 q 161 440 117 467 q 360 396 253 396 q 587 436 494 396 q 679 535 679 476 l 675 554 l 663 569 l 643 579 q 617 583 632 583 q 464 549 531 583 l 436 531 l 386 496 l 374 493 q 340 501 356 493 l 319 511 q 253 582 269 543 q 240 640 240 608 q 331 731 240 690 l -7 732 l -7 775 l 772 775 l 772 732 l 469 732 l 499 713 q 422 690 465 706 q 324 632 346 663 q 311 597 311 615 q 331 564 311 564 l 340 565 l 354 574 l 379 592 l 401 606 q 481 639 432 625 q 556 649 514 649 q 661 607 614 649 q 708 507 708 565 q 651 403 708 451 q 507 339 594 354 l 517 313 l 521 278 q 500 254 521 267 q 440 235 485 244 l 390 224 l 321 211 q 249 196 296 207 q 154 153 185 176 l 136 139 l 124 122 l 121 108 q 169 63 121 85 l 224 47 l 289 43 l 310 43 q 388 57 360 43 l 353 64 q 324 78 339 67 l 303 93 l 297 108 q 313 143 297 128 q 385 181 343 168 q 483 199 433 196 q 513 199 501 199 q 591 178 557 199 q 625 122 625 157 q 538 38 625 72 q 331 1 442 -1 l 275 3 l 226 11 l 183 22 l 147 39 q 118 60 132 46 l 97 86 l 83 114 l 79 144 q 156 239 79 196 q 290 281 214 271 q 346 283 313 283 l 364 283 q 435 297 400 283 q 469 332 469 311 l 456 329 l 413 329 q 203 368 293 329 q 146 399 182 376 q 36 569 36 467 l 39 583 q 42 597 39 593 l 46 610 l 51 619 l 83 643 m 460 81 l 489 90 l 521 104 l 557 118 l 568 124 l 576 132 l 581 138 l 583 144 l 581 154 q 572 164 575 161 l 558 169 l 540 172 q 481 167 503 172 q 432 149 460 163 q 388 93 388 121 q 390 75 388 81 l 401 65 l 460 81 z "},"":{"ha":722,"x_min":-210,"x_max":725,"o":"m 457 640 l 457 704 l 539 732 l -7 732 l -7 775 l 725 775 l 725 732 l 554 732 l 554 650 q 544 632 554 642 l 519 615 l 501 606 l 471 592 q 400 619 442 615 q 183 553 275 619 q 92 388 92 486 q 203 279 92 311 q 274 269 236 269 l 296 269 q 317 272 310 269 q 338 274 329 272 q 351 278 346 275 q 324 331 338 300 q 315 388 315 358 q 388 488 315 439 q 539 542 467 542 q 610 503 576 542 q 639 410 639 468 q 576 288 639 342 q 503 239 540 256 q 414 213 472 225 q 519 100 450 126 q 568 93 547 93 q 653 144 610 93 l 654 131 l 656 121 q 643 60 656 93 q 610 1 633 33 q 472 57 535 1 q 372 207 410 113 l 357 204 q 340 201 346 204 l 321 199 l 301 199 q 114 269 190 199 q 38 436 38 340 q 142 613 38 538 q 400 689 247 689 q 457 640 428 692 m 539 479 q 426 414 481 479 q 397 358 408 392 q 385 300 385 324 l 385 290 l 386 283 q 529 347 464 301 q 590 436 590 390 q 539 479 590 479 m 349 106 q 26 21 199 78 q -186 -90 -110 -24 l -199 -72 l -206 -56 l -208 -40 l -210 -26 q -117 25 -158 7 l 0 75 q 163 125 69 104 l 347 165 l 349 106 z "},"":{"ha":542,"x_min":-31,"x_max":554,"o":"m 185 626 q 219 629 207 626 q 250 632 240 629 q 274 635 265 632 l 283 628 l 301 606 q 443 638 346 629 q 511 640 474 640 l 554 565 l 542 565 l 529 567 l 515 568 l 503 568 q 392 549 451 568 q 185 392 260 506 q 149 283 149 336 q 160 232 149 253 q 251 160 183 186 q 315 150 290 150 q 429 172 385 150 l 450 126 l 457 88 q 426 76 451 83 l 372 74 q 267 93 321 71 q 113 246 154 139 q 92 354 92 296 q 211 549 92 486 l 50 550 l 36 554 q 19 571 28 558 l 1 597 l -17 635 l 8 632 l 46 629 q 92 626 64 629 l 185 626 m 554 732 l -31 732 l -31 775 l 554 775 l 554 732 z "},"":{"ha":556,"x_min":8,"x_max":560,"o":"m 360 646 q 431 578 406 625 q 456 479 456 532 q 440 367 456 406 q 399 297 428 322 l 431 315 q 461 335 442 322 l 494 353 l 518 360 l 560 285 q 365 189 392 201 q 183 74 238 121 q 175 76 176 75 l 168 81 l 144 124 l 126 158 l 274 243 q 381 346 343 283 q 418 450 408 392 q 421 488 421 465 q 368 582 421 549 q 331 592 350 592 q 118 492 211 592 q 64 417 90 461 q 44 458 51 432 q 36 515 36 483 q 147 621 69 576 q 301 660 208 656 q 360 646 335 661 m 560 732 l 8 732 l 8 775 l 560 775 l 560 732 z "},"":{"ha":1007,"x_min":-44,"x_max":1006,"o":"m -44 732 l -44 775 l 1006 775 l 1006 732 l 558 732 l 557 693 l 556 607 q 554 553 556 593 q 553 499 553 519 l 553 396 q 696 553 593 515 q 763 564 726 564 q 879 497 833 564 q 929 325 929 424 q 909 244 929 288 q 854 167 889 201 l 835 147 l 818 132 l 799 118 l 781 107 l 743 92 l 706 88 q 672 108 685 88 l 657 133 l 643 164 q 787 251 729 181 q 844 410 844 321 l 840 447 l 829 479 l 811 500 q 790 507 806 504 q 656 417 722 507 q 553 186 596 338 l 558 75 q 454 144 496 94 l 454 313 q 367 221 419 253 q 244 186 308 186 q 80 280 147 186 q 13 507 13 374 l 13 533 q 15 563 13 550 l 28 619 l 47 675 l 76 731 l -44 732 m 367 335 q 397 373 367 335 q 454 535 428 411 l 454 578 l 457 663 l 461 703 l 544 732 l 106 732 l 196 697 q 90 403 90 569 q 131 299 90 342 q 175 265 153 275 q 231 256 207 254 q 367 335 306 258 m 338 224 z "},"":{"ha":463,"x_min":63,"x_max":386,"o":"m 386 306 l 63 306 l 63 396 l 386 396 l 386 306 z "},"":{"ha":750,"x_min":103,"x_max":664,"o":"m 103 407 l 103 510 l 664 510 l 664 407 l 103 407 z "},"":{"ha":278,"x_min":63,"x_max":211,"o":"m 211 785 q 151 690 174 751 q 146 663 146 678 q 157 604 146 654 q 183 540 158 594 l 122 481 l 63 540 l 71 600 q 110 726 82 685 q 125 753 115 736 q 178 818 142 779 l 211 785 z "},"":{"ha":278,"x_min":60,"x_max":208,"o":"m 208 769 l 199 708 q 186 644 192 665 q 163 585 178 608 l 144 556 q 93 492 128 529 l 60 525 q 119 618 96 557 q 124 646 124 631 q 114 703 124 650 q 88 769 113 703 l 149 829 l 208 769 z "},"":{"ha":0,"x_min":-550,"x_max":17,"o":"m -529 1106 l -521 1096 l -512 1075 l -507 1040 q -486 997 -504 1022 l -440 950 q -315 900 -382 900 q -137 958 -212 900 q -81 1024 -99 988 q -64 1101 -64 1061 q -43 1095 -56 1101 q -14 1076 -31 1089 l 8 1051 q 17 1032 17 1042 q -60 890 17 951 q -193 836 -112 849 q -247 832 -219 832 q -462 903 -374 832 q -550 1074 -550 975 l -550 1086 q -547 1099 -549 1096 l -544 1103 l -543 1107 l -537 1110 l -529 1106 m -223 1010 q -225 1005 -223 1010 q -237 988 -226 999 l -261 972 l -287 967 l -314 971 q -336 986 -326 975 q -351 1008 -344 993 l -357 1035 q -336 1082 -357 1061 q -314 1099 -328 1093 l -287 1104 q -240 1083 -261 1104 q -224 1061 -229 1075 l -218 1035 q -223 1010 -219 1022 z "},"":{"ha":310,"x_min":143,"x_max":275,"o":"m 203 393 l 143 451 l 203 510 l 260 451 l 203 393 m 264 14 q 233 -26 258 0 l 190 -72 l 143 -117 l 143 -74 l 203 -3 l 203 43 l 163 103 l 217 161 q 275 42 275 106 q 264 14 275 29 z "},"":{"ha":1047,"x_min":125,"x_max":918,"o":"m 918 64 l 843 -10 l 769 64 l 844 138 l 918 64 m 596 57 l 521 -17 l 447 57 l 522 131 l 596 57 m 274 56 l 199 -18 l 125 56 l 200 129 l 274 56 z "},"":{"ha":667,"x_min":-17,"x_max":681,"o":"m 153 385 q 226 308 189 368 q 256 249 243 282 q 442 299 364 249 q 519 425 519 350 l 515 444 q 451 479 500 479 q 360 467 403 479 q 290 436 325 457 l 271 428 l 256 425 q 171 476 208 425 l 153 501 l 140 528 l 132 553 l 129 578 l 132 592 l 140 607 l 156 621 l 176 635 l 229 658 l 293 674 l 354 686 l 400 699 q 438 731 435 708 l -17 732 l -17 775 l 681 775 l 681 732 l 486 732 l 549 704 q 521 668 549 686 q 499 657 511 661 l 443 635 l 375 619 q 311 604 319 607 q 250 581 275 594 l 228 568 l 213 556 l 203 542 l 200 529 q 219 488 200 504 q 394 556 304 556 q 528 507 488 556 q 681 549 626 549 l 681 508 q 556 444 638 500 l 560 425 l 563 396 q 514 268 563 325 q 396 189 465 211 q 290 172 346 172 q 410 88 338 88 l 422 89 l 436 93 l 449 100 l 461 111 q 483 138 469 118 l 500 172 q 533 88 533 147 q 507 14 533 40 q 438 -18 478 -18 q 329 31 381 -18 q 278 92 304 54 q 242 172 256 135 l 200 174 q 67 211 114 176 q 10 311 10 253 q 75 389 10 367 q 117 396 94 396 q 153 385 136 396 m 122 325 q 96 322 106 325 l 76 314 q 63 300 68 311 l 58 283 q 68 265 58 275 l 101 253 l 151 244 l 214 242 q 122 325 165 325 z "},"":{"ha":340,"x_min":107,"x_max":221,"o":"m 108 619 l 115 718 l 118 776 l 119 829 l 125 839 l 133 843 l 144 838 l 160 828 l 174 814 l 190 801 q 213 777 204 789 q 218 753 221 765 l 214 699 l 214 672 q 213 642 214 663 l 211 619 l 211 604 q 208 578 211 594 l 208 546 q 206 522 208 531 l 204 507 l 204 271 q 203 258 207 263 l 190 256 q 168 258 176 256 l 147 269 q 107 325 113 288 l 108 619 m 108 172 q 119 178 115 178 l 126 176 l 136 174 l 156 164 l 169 158 q 204 88 204 144 l 204 44 q 203 32 207 36 l 190 29 l 182 32 l 168 40 l 160 44 l 151 50 l 142 53 l 133 57 q 113 74 122 63 l 107 101 l 107 160 l 108 172 z "},"":{"ha":1000,"x_min":-17,"x_max":1008,"o":"m 99 410 q 167 197 99 279 q 336 108 239 108 q 504 228 458 108 q 518 306 518 264 q 481 386 518 350 q 399 431 447 418 q 308 444 350 444 l 296 465 l 286 483 l 281 497 l 279 507 l 281 511 l 290 514 l 296 515 l 303 518 l 308 518 l 314 521 q 469 588 406 544 q 532 668 526 625 q 528 690 535 678 q 504 715 521 701 l 474 732 q 447 739 467 736 q 386 731 417 739 q 318 703 347 719 l 303 694 l 290 686 l 278 676 l 269 668 l 256 650 l 251 635 l 231 675 l 224 703 l 228 717 l 238 731 l -17 732 l -17 775 l 1008 775 l 1008 732 l 518 732 q 546 710 533 724 l 569 683 l 583 651 l 589 619 q 578 576 589 594 q 496 497 558 536 q 428 465 465 479 q 531 426 490 453 q 589 354 571 399 l 575 432 l 578 440 l 590 454 l 607 467 l 631 479 l 656 489 l 682 496 l 710 500 l 742 501 q 878 440 819 504 q 938 283 938 375 q 932 247 938 263 l 919 214 l 896 178 l 865 143 q 721 74 804 74 q 658 164 689 74 q 770 201 710 164 q 861 283 831 238 q 882 346 882 315 q 857 407 882 383 q 783 436 832 431 q 594 325 663 436 l 600 300 l 603 269 q 526 132 603 189 q 390 78 471 90 q 336 74 363 74 q 149 150 225 74 q 50 331 82 217 q 28 507 28 410 q 36 518 33 515 l 58 526 l 92 532 l 133 535 q 99 410 99 506 z "},"":{"ha":628,"x_min":-7,"x_max":636,"o":"m 592 457 l 533 408 l 479 458 l 533 506 l 592 457 m 636 621 l 469 621 l 469 500 l 285 500 q 218 469 218 500 q 219 458 218 465 q 256 440 222 443 q 286 442 269 439 q 336 449 329 449 q 436 424 396 449 q 497 340 488 392 q 499 315 499 333 q 472 242 499 271 q 368 197 432 197 q 254 226 314 197 q 192 268 222 242 q 104 368 161 294 q 74 411 82 394 l 104 435 q 188 333 121 389 q 286 282 247 282 l 313 282 q 381 296 357 282 q 411 315 404 310 q 428 346 428 329 q 410 383 428 375 q 383 383 399 389 q 354 372 368 378 q 294 360 326 365 q 229 386 249 360 l 157 485 q 142 528 142 506 q 190 578 142 564 q 222 581 200 581 l 375 581 l 375 621 l -7 621 l -7 701 l 636 701 l 636 621 m 446 225 l 446 -149 l 383 -87 l 383 206 l 446 225 m 294 218 l 294 4 q 275 -49 294 -49 q 247 -32 254 -49 l 182 54 q 168 94 163 81 q 192 107 174 107 l 238 107 l 238 236 l 294 218 z "},"":{"ha":701,"x_min":33,"x_max":664,"o":"m 393 543 q 344 415 393 463 q 215 367 296 367 q 88 419 143 367 q 33 544 33 472 q 88 671 33 617 q 215 725 143 725 q 393 543 393 725 m 553 724 l 551 646 l 144 -36 l 144 43 l 553 724 m 664 165 q 615 38 664 86 q 486 -10 565 -10 q 359 43 414 -10 q 304 168 304 96 q 360 293 304 239 q 486 347 415 347 q 664 165 664 347 m 301 540 q 213 696 301 696 q 146 646 168 696 q 128 557 128 607 q 213 401 128 401 q 301 540 301 401 m 572 164 q 483 319 572 319 q 417 269 439 319 q 399 181 399 231 q 483 25 399 25 q 572 164 572 25 z "},"":{"ha":993,"x_min":-1,"x_max":992,"o":"m 667 678 l 682 667 l 699 651 l 714 640 l 714 704 l 796 732 l -1 732 l -1 775 l 992 775 l 992 732 l 811 732 l 811 650 q 801 632 811 642 l 776 615 l 758 606 l 728 592 q 657 606 710 606 q 456 549 564 606 q 349 436 349 493 q 401 347 349 383 q 461 319 419 335 q 531 311 497 310 l 567 313 l 606 313 q 629 318 619 313 l 628 328 l 628 343 q 739 493 628 447 q 811 507 772 507 q 881 475 849 507 q 908 396 908 439 q 847 301 908 346 q 692 242 786 257 l 717 185 q 750 140 726 169 q 787 113 769 122 q 825 101 804 104 q 924 144 888 101 l 928 122 l 929 99 q 924 61 931 78 l 911 29 q 867 1 894 6 q 735 69 794 1 q 686 146 706 103 q 657 242 669 182 l 349 146 l 358 108 l 363 74 q 358 47 363 58 q 339 22 353 36 l 311 7 l 278 1 q 171 31 217 1 q 125 101 125 60 q 158 151 125 126 q 199 174 178 165 l 251 193 l 224 257 q 144 222 183 238 l 90 213 q 46 240 64 213 l 32 271 l 28 306 q 66 391 28 357 q 153 425 104 425 q 188 420 174 425 q 221 401 203 415 l 247 374 q 267 339 256 365 l 321 214 l 475 271 q 373 315 419 276 q 304 406 326 353 q 292 479 292 436 q 394 621 292 564 q 657 682 506 682 l 667 678 m 864 458 q 839 465 858 463 q 808 463 819 465 l 781 456 l 753 443 l 724 425 q 671 332 671 372 q 813 375 747 344 q 872 436 867 400 q 864 458 872 450 m 176 261 q 210 278 189 264 l 192 319 q 172 353 182 342 q 133 382 158 376 q 106 332 106 382 q 108 303 106 311 l 117 278 l 131 261 l 147 256 l 176 261 m 292 79 q 290 97 294 86 l 278 122 l 251 113 l 232 101 q 219 88 224 96 l 215 74 q 225 57 215 63 l 258 51 q 292 79 293 57 z "},"":{"ha":743,"x_min":4,"x_max":746,"o":"m 668 457 l 486 458 q 299 419 381 458 q 178 311 217 381 q 151 213 151 265 q 225 99 151 146 q 403 51 299 51 q 604 101 521 51 l 599 53 q 403 1 510 1 q 268 21 331 1 q 118 111 178 49 q 53 269 53 182 q 103 378 53 321 q 236 472 149 429 q 154 506 174 486 q 139 518 144 513 q 113 550 124 533 q 103 583 103 567 q 164 633 103 608 l 236 654 l 332 675 q 446 703 369 682 q 486 731 482 717 l 4 732 l 4 775 l 746 775 l 746 732 l 514 732 l 585 690 q 574 668 585 679 l 542 650 l 490 633 l 424 619 q 365 611 396 615 q 331 600 361 610 q 224 561 251 585 q 207 535 210 550 l 207 529 l 211 524 l 218 517 l 228 511 l 254 500 l 290 493 q 439 521 364 518 q 472 521 460 521 q 525 526 476 521 q 574 524 560 529 q 643 524 585 519 q 707 515 694 528 l 668 457 z "},"":{"ha":419,"x_min":4,"x_max":418,"o":"m 19 314 l 4 371 l 390 371 l 407 314 l 19 314 m 31 142 l 15 199 l 401 199 l 418 142 l 31 142 z "},"":{"ha":310,"x_min":143,"x_max":275,"o":"m 203 393 l 143 451 l 203 510 l 260 451 l 203 393 m 264 14 q 233 -26 258 0 l 190 -72 l 143 -117 l 143 -74 l 203 -3 l 203 43 l 163 103 l 217 161 q 275 42 275 106 q 264 14 275 29 z "},"":{"ha":8,"x_min":-328,"x_max":-210,"o":"m -269 -147 l -328 -89 l -269 -31 l -210 -89 l -269 -147 z "},"":{"ha":694,"x_min":0,"x_max":0,"o":""},"":{"ha":799,"x_min":3,"x_max":829,"o":"m 3 732 l 3 775 l 829 775 l 829 732 l 606 732 l 604 693 l 603 607 q 601 553 603 593 q 600 499 600 519 l 600 396 q 743 553 640 515 q 810 564 774 564 q 824 557 818 564 l 829 535 q 810 507 829 513 q 696 417 757 507 q 600 186 643 338 l 606 75 q 501 144 543 94 l 501 313 q 414 221 467 253 q 292 186 356 186 q 133 279 199 186 q 68 507 68 372 q 124 731 68 640 l 3 732 m 414 335 q 444 373 414 335 q 501 535 475 411 l 501 578 l 504 663 l 508 703 l 592 732 l 151 732 l 243 704 q 138 403 138 579 q 178 299 138 342 q 222 265 200 275 q 278 256 254 254 q 414 335 353 258 z "}}}
